<?xml version="1.0" standalone="no"?>
<!DOCTYPE svg PUBLIC "-//W3C//DTD SVG 20010904//EN"
 "http://www.w3.org/TR/2001/REC-SVG-20010904/DTD/svg10.dtd">
<svg version="1.0" xmlns="http://www.w3.org/2000/svg"
 width="300.000000pt" height="300.000000pt" viewBox="0 0 300.000000 300.000000"
 preserveAspectRatio="xMidYMid meet">
<metadata>
Created by potrace 1.10, written by Peter Selinger 2001-2011
</metadata>
<g transform="translate(0.000000,300.000000) scale(0.100000,-0.100000)"
fill="#000000" stroke="none">
<path d="M1393 2670 c-39 -16 -28 -90 12 -90 40 0 55 11 55 40 0 58 -17 70
-67 50z"/>
<path d="M968 2529 c-3 -19 0 -25 14 -26 21 -2 23 7 4 32 -12 17 -13 17 -18
-6z"/>
<path d="M1004 2539 c-10 -17 13 -36 27 -22 12 12 4 33 -11 33 -5 0 -12 -5
-16 -11z"/>
<path d="M1253 2537 c5 -12 -2 -18 -28 -23 -18 -3 -38 -3 -44 1 -6 3 -11 -1
-11 -9 0 -8 5 -18 12 -22 7 -5 8 -3 3 7 -7 11 -5 11 10 -1 13 -11 19 -12 22
-3 2 7 11 9 20 6 11 -4 14 -2 9 5 -5 8 -2 10 8 6 19 -7 23 31 4 42 -8 5 -9 2
-5 -9z"/>
<path d="M1630 2546 c-3 -2 -86 -25 -185 -51 -99 -25 -186 -52 -193 -59 -11
-10 -8 -32 14 -122 15 -60 31 -113 35 -118 11 -13 241 40 294 67 22 11 34 22
28 24 -7 3 -13 14 -13 25 0 17 -2 18 -15 4 -8 -8 -15 -21 -15 -30 0 -10 -16
-19 -42 -26 -24 -6 -58 -16 -76 -22 -19 -5 -37 -6 -42 -2 -10 12 -40 136 -34
145 2 4 18 10 35 14 18 4 29 12 26 19 -9 22 22 79 38 72 9 -3 38 3 66 14 59
24 119 27 119 6 0 -8 3 -21 6 -30 4 -12 0 -16 -15 -16 -12 0 -33 -11 -47 -25
-29 -30 -33 -30 -49 -8 -7 9 -26 16 -44 16 -18 0 -39 -7 -49 -16 -19 -19 -6
-22 34 -7 34 13 50 1 59 -48 9 -48 14 -55 30 -42 10 8 19 8 33 -1 15 -10 25
-9 50 4 18 8 34 12 36 8 7 -10 -31 -41 -49 -41 -8 0 -15 -5 -15 -10 0 -11 42
-4 73 12 22 11 22 13 -11 138 -25 96 -30 105 -53 108 -13 2 -27 1 -29 -2z
m-200 -100 c0 -8 -16 -23 -35 -35 -40 -23 -42 -36 -19 -123 8 -33 14 -61 12
-63 -2 -1 -15 -5 -30 -9 -35 -8 -53 19 -63 92 -6 45 -4 56 11 68 18 14 17 15
-8 9 -16 -3 -28 -2 -28 3 0 15 59 52 97 61 55 13 63 13 63 -3z m242 -18 c24
-20 28 -44 12 -67 -18 -25 -31 -26 -56 -4 -22 20 -23 46 -2 67 19 19 26 20 46
4z"/>
<path d="M921 2518 c-1 -19 4 -28 14 -28 8 0 15 2 15 4 0 2 3 11 6 20 3 9 1
16 -5 16 -6 0 -11 -8 -12 -17 -1 -12 -4 -10 -9 7 l-8 25 -1 -27z"/>
<path d="M885 2520 c3 -5 -6 -12 -20 -16 -14 -3 -25 -13 -25 -21 0 -11 6 -14
23 -9 12 3 27 6 33 6 7 0 9 11 6 25 -2 14 -9 25 -14 25 -5 0 -6 -4 -3 -10z"/>
<path d="M810 2502 c0 -8 -100 -46 -125 -47 -5 0 -11 -9 -12 -20 -2 -11 0 -14
3 -7 3 6 10 10 15 6 5 -3 9 1 9 8 0 9 3 9 10 -2 7 -11 10 -11 10 -2 0 7 5 10
10 7 6 -3 10 -2 10 3 0 6 9 8 20 5 13 -3 20 0 20 8 0 11 2 11 10 -1 8 -13 10
-12 10 4 0 14 3 16 13 8 10 -8 13 -6 14 8 1 11 -2 22 -8 25 -5 4 -9 2 -9 -3z"/>
<path d="M1130 2492 c0 -4 -8 -8 -17 -9 -42 -3 -58 -11 -60 -29 -2 -10 0 -14
3 -8 2 6 16 9 29 6 15 -2 25 0 25 7 0 8 6 8 20 -1 24 -15 34 -6 25 21 -6 20
-25 30 -25 13z"/>
<path d="M1009 2460 c-9 -5 -25 -11 -35 -13 -11 -1 -24 -6 -31 -10 -7 -4 -14
0 -17 10 -3 11 -4 8 -3 -7 2 -29 23 -33 51 -11 11 9 16 10 12 4 -4 -7 -2 -13
3 -13 6 0 11 8 11 18 0 14 2 15 10 2 7 -11 10 -11 10 -2 0 7 4 11 8 8 5 -3 9
1 9 9 0 17 -6 18 -28 5z"/>
<path d="M590 2444 c-11 -12 -11 -18 2 -31 10 -10 21 -12 30 -7 7 5 17 9 23 9
5 0 11 8 13 18 4 21 -16 23 -24 2 -7 -17 -34 -21 -34 -5 0 6 5 10 10 10 6 0
10 5 10 10 0 15 -16 12 -30 -6z"/>
<path d="M860 2421 c-14 -4 -26 -15 -26 -24 -2 -14 -1 -14 3 -2 4 13 8 14 19
4 9 -7 14 -8 14 -1 0 5 10 8 21 5 15 -4 20 -2 17 7 -5 17 -16 20 -48 11z"/>
<path d="M740 2388 c-25 -6 -55 -10 -68 -10 -17 0 -22 -4 -18 -15 3 -8 6 -17
6 -19 0 -2 5 -4 11 -4 5 0 7 6 3 13 -6 9 -4 9 8 -1 14 -11 18 -10 27 5 8 14
11 15 11 3 1 -10 4 -9 10 5 5 11 9 14 9 8 1 -15 31 -18 31 -3 0 5 7 7 15 4 11
-5 13 -2 9 10 -3 9 -7 16 -8 15 0 -1 -21 -6 -46 -11z"/>
<path d="M611 2363 c4 -2 5 -14 2 -26 -3 -16 -2 -18 5 -9 5 8 13 13 18 12 5
-1 10 3 12 9 2 6 -1 11 -6 11 -6 0 -16 2 -24 3 -7 2 -10 2 -7 0z"/>
<path d="M1477 2360 c12 -5 25 -21 29 -35 6 -25 15 -31 27 -19 9 10 -45 64
-63 63 -9 0 -6 -4 7 -9z"/>
<path d="M960 2269 c-14 -6 -34 -13 -45 -15 -24 -6 -66 -15 -80 -18 -5 -1 -19
-7 -30 -14 -18 -10 -18 -11 -2 -12 9 0 17 -6 17 -12 0 -9 3 -9 8 -2 12 17 59
34 100 36 12 0 22 5 22 10 0 5 5 6 10 3 6 -3 10 -2 10 4 0 6 7 8 15 5 9 -4 15
0 15 10 0 18 -5 19 -40 5z"/>
<path d="M1163 2253 c-19 -40 -2 -55 45 -39 34 12 56 36 32 36 -6 0 -8 5 -5
10 3 6 -1 10 -9 10 -19 0 -22 -26 -4 -32 8 -3 6 -7 -4 -11 -13 -4 -18 2 -23
24 -8 36 -16 37 -32 2z"/>
<path d="M431 2246 c-7 -8 -10 -20 -6 -26 3 -5 -4 -14 -16 -19 -23 -8 -23 -8
-4 -18 35 -19 72 -13 86 14 23 43 -30 86 -60 49z"/>
<path d="M1083 2229 c-25 -9 -27 -16 -14 -38 15 -23 49 -2 42 25 -5 18 -10 20
-28 13z"/>
<path d="M1016 2204 c-8 -21 1 -34 25 -34 24 0 26 20 2 21 -11 0 -13 3 -5 6
16 6 15 23 -2 23 -8 0 -17 -7 -20 -16z"/>
<path d="M905 2188 c4 -13 11 -30 16 -38 6 -11 9 -9 10 10 1 17 3 20 6 8 4
-17 23 -26 23 -10 0 12 -14 26 -38 40 -22 12 -23 12 -17 -10z"/>
<path d="M970 2195 c-6 -8 -9 -19 -5 -25 8 -13 45 -13 45 1 0 6 -7 9 -15 5 -8
-3 -15 -1 -15 4 0 6 5 10 10 10 6 0 10 5 10 10 0 15 -16 12 -30 -5z"/>
<path d="M783 2150 c4 -18 7 -37 7 -42 0 -5 4 -7 8 -4 11 7 3 64 -11 73 -7 4
-8 -5 -4 -27z"/>
<path d="M865 2170 c-3 -6 1 -13 10 -16 13 -6 14 -8 3 -15 -10 -7 -9 -9 4 -9
20 0 32 16 18 25 -6 4 -8 11 -5 16 4 5 -1 9 -9 9 -8 0 -18 -5 -21 -10z"/>
<path d="M741 2161 c-9 -6 -11 -18 -6 -40 8 -37 21 -40 27 -6 3 14 1 25 -3 25
-5 0 -6 7 -3 15 7 17 4 18 -15 6z"/>
<path d="M823 2163 c-17 -6 -17 -28 0 -41 19 -16 40 2 32 27 -6 21 -11 23 -32
14z"/>
<path d="M2025 2163 c-26 -7 -613 -164 -780 -209 -71 -20 -222 -60 -334 -90
-112 -29 -212 -61 -222 -70 -10 -9 -22 -32 -25 -51 -5 -25 -9 -31 -15 -21 -13
19 -11 0 6 -57 l15 -50 -6 45 c-4 25 -4 43 -1 40 2 -3 80 -302 173 -665 152
-597 171 -663 196 -689 24 -23 35 -27 66 -24 20 3 179 47 352 99 l316 94 18
165 c9 91 20 183 23 205 6 36 5 39 -10 26 -10 -7 -17 -20 -17 -27 0 -8 -4 -14
-10 -14 -5 0 -10 5 -10 10 0 6 -9 10 -20 10 -23 0 -39 26 -42 70 -3 30 1 34
37 46 50 18 65 12 65 -26 0 -16 4 -30 9 -30 4 0 11 37 14 83 4 45 11 131 17
191 7 70 7 113 1 120 -6 7 -14 41 -19 76 l-8 65 -32 -49 c-46 -71 -42 -134 11
-176 25 -20 15 -40 -19 -40 -25 0 -25 -1 -19 -53 7 -56 1 -69 -40 -80 -11 -3
-171 -48 -355 -101 -184 -52 -348 -98 -363 -101 -36 -7 -25 -25 15 -25 34 0
108 19 123 32 5 4 31 8 57 8 26 0 48 4 48 8 0 4 21 14 48 22 453 132 510 154
498 187 -3 7 0 13 7 13 16 0 10 -67 -7 -78 -6 -4 -27 -12 -46 -17 -21 -6 -43
-23 -56 -43 -19 -28 -23 -30 -35 -16 -25 31 -119 -7 -119 -49 -1 -20 -2 -21
-14 -5 -9 13 -27 18 -58 18 -52 0 -77 -21 -80 -66 -2 -41 -6 -46 -30 -33 -14
8 -23 8 -31 0 -6 -6 -20 -11 -31 -12 -21 0 -21 0 -1 -9 17 -7 17 -9 3 -9 -20
-1 -24 -16 -6 -27 7 -4 8 -3 4 5 -5 8 2 11 25 9 19 -1 34 3 37 10 8 24 22 11
22 -20 0 -47 -22 -66 -67 -59 -34 6 -38 10 -49 51 -9 38 -8 48 5 65 16 20 16
20 -7 0 -20 -16 -22 -25 -17 -60 9 -52 32 -75 83 -82 38 -5 41 -4 66 36 15 22
30 41 35 41 16 0 119 -99 157 -151 20 -28 39 -47 42 -44 4 3 2 9 -3 13 -6 4
-23 24 -38 45 -15 20 -44 53 -63 71 l-36 35 26 22 c14 12 29 38 32 57 5 28 9
31 16 18 5 -9 16 -16 23 -16 8 0 15 -4 15 -9 0 -15 30 -22 50 -11 11 6 25 28
31 50 11 35 14 39 28 27 9 -7 29 -19 45 -27 l28 -15 -7 -70 c-5 -38 -9 -99
-10 -135 l-2 -65 -337 -99 c-219 -65 -340 -96 -346 -90 -6 6 -28 80 -49 165
-22 84 -97 377 -167 649 -70 272 -128 506 -128 520 -1 20 6 27 39 38 57 18
1267 344 1284 346 7 0 18 -6 23 -14 5 -8 35 -116 66 -239 55 -217 58 -225 85
-234 16 -5 30 -7 31 -6 4 4 -117 484 -129 512 -4 10 -20 24 -36 32 -29 16 -31
16 -64 8z m-232 -778 c-4 -24 1 -46 15 -74 26 -49 17 -61 -15 -19 -26 35 -29
64 -11 103 15 34 18 32 11 -10z m-137 -455 c17 -58 17 -58 -5 -65 -10 -3 -18
-13 -17 -22 0 -9 -5 -18 -11 -20 -7 -3 -13 3 -13 12 0 12 -6 15 -20 10 -23 -7
-36 17 -42 76 -3 31 0 35 32 46 51 18 61 13 76 -37z m-147 -47 c15 -51 14 -55
-13 -80 -33 -32 -77 -19 -89 26 -12 49 -5 74 23 82 56 16 69 11 79 -28z"/>
<path d="M1583 889 c-1 -11 6 -16 23 -16 13 0 21 3 18 8 -3 5 0 9 5 9 6 0 11
4 11 10 0 17 -56 6 -57 -11z"/>
<path d="M1454 866 c-7 -20 2 -46 16 -46 13 0 13 47 0 55 -6 3 -13 -1 -16 -9z"/>
<path d="M601 2120 c-2 -21 64 -275 66 -259 2 8 -13 73 -31 144 -19 72 -35
123 -35 115z"/>
<path d="M965 2108 c-75 -22 -82 -25 -72 -34 5 -6 65 10 97 26 9 4 30 6 48 5
22 -2 32 2 32 11 0 18 -20 17 -105 -8z"/>
<path d="M1510 2110 c0 -5 -7 -7 -15 -4 -8 4 -15 1 -15 -5 0 -12 20 -14 44 -5
9 3 13 10 10 15 -7 12 -24 11 -24 -1z"/>
<path d="M1435 2094 c-5 -2 -29 -8 -53 -14 -23 -6 -40 -15 -37 -20 5 -8 90 12
103 24 7 8 -1 14 -13 10z"/>
<path d="M801 2061 c-8 -5 -21 -7 -30 -4 -13 5 -13 3 -4 -7 13 -14 63 -6 63
10 0 12 -11 13 -29 1z"/>
<path d="M1318 2064 c-7 -6 -33 -12 -60 -13 -10 -1 -18 -7 -18 -15 0 -12 7
-12 38 -4 38 10 59 24 51 33 -3 3 -8 2 -11 -1z"/>
<path d="M1194 2031 c-3 -3 -9 -6 -12 -6 -40 -3 -82 -18 -82 -30 0 -11 5 -12
23 -5 22 9 74 23 91 24 5 1 11 6 13 12 4 11 -23 15 -33 5z"/>
<path d="M1968 1998 c-14 -10 -16 -20 -9 -43 7 -25 13 -30 36 -28 39 3 49 16
38 50 -11 31 -39 41 -65 21z"/>
<path d="M985 1974 c-22 -8 -58 -17 -80 -20 -22 -3 -47 -8 -55 -11 -8 -3 -23
-5 -32 -4 -10 1 -18 -2 -18 -8 0 -18 21 -23 38 -9 22 17 128 18 125 1 -2 -8 7
-10 25 -6 15 3 36 6 47 8 11 1 25 3 30 4 6 1 4 5 -4 10 -8 5 -26 4 -46 -5 -28
-11 -35 -11 -45 0 -12 16 -5 20 62 32 21 3 35 10 32 15 -7 12 -32 10 -79 -7z"/>
<path d="M1140 1967 c-14 -5 -33 -9 -42 -8 -10 1 -18 -2 -18 -7 0 -5 10 -8 23
-6 12 1 22 3 22 4 0 1 8 3 18 5 20 4 33 13 26 19 -2 2 -15 -1 -29 -7z"/>
<path d="M1766 1958 c-22 -31 -20 -81 4 -103 18 -16 25 -17 63 -5 23 7 45 17
49 24 13 19 9 60 -8 84 -21 31 -87 31 -108 0z m75 -18 c12 -7 18 -20 17 -36
-3 -36 -43 -51 -77 -30 -11 7 -11 10 0 17 18 11 32 12 25 1 -2 -4 7 -8 22 -9
26 -2 27 -2 5 9 -13 6 -23 15 -23 20 0 5 -9 6 -20 3 -22 -7 -23 -5 -14 19 7
18 36 21 65 6z"/>
<path d="M890 1898 c-19 -5 -45 -9 -58 -9 -13 1 -21 -3 -17 -8 3 -6 15 -8 28
-5 12 2 35 7 52 10 16 3 31 7 34 10 10 9 -6 10 -39 2z"/>
<path d="M1983 1892 c-68 -19 -100 -39 -43 -28 84 17 120 18 120 5 0 -8 9 -25
20 -39 l19 -25 -13 50 c-7 29 -18 51 -27 52 -8 1 -42 -6 -76 -15z"/>
<path d="M1420 1884 c0 -9 -7 -22 -16 -29 -25 -18 -1 -59 29 -49 12 3 23 7 24
8 1 1 -4 20 -10 44 -11 42 -27 57 -27 26z"/>
<path d="M1343 1843 c-17 -6 -17 -38 0 -51 18 -16 39 1 35 28 -3 25 -14 32
-35 23z"/>
<path d="M441 1823 c-1 -6 15 -76 35 -155 50 -198 51 -192 -15 -198 -66 -7
-77 -20 -86 -108 -3 -37 -8 -79 -11 -94 -2 -16 0 -28 5 -28 5 0 12 39 16 88 4
49 13 97 22 111 14 22 20 23 74 17 32 -3 59 -4 59 -2 0 6 -90 359 -95 371 -2
6 -4 5 -4 -2z"/>
<path d="M1288 1825 c-8 -8 3 -55 13 -55 5 0 9 6 9 14 0 8 3 21 6 30 6 15 -15
23 -28 11z"/>
<path d="M1933 1823 c-13 -2 -23 -9 -23 -14 0 -12 60 -2 75 12 9 9 -11 10 -52
2z"/>
<path d="M1230 1805 c-18 -21 -5 -47 22 -43 21 3 24 10 19 48 -2 15 -27 12
-41 -5z"/>
<path d="M1704 1809 c-54 -15 -56 -25 -28 -129 15 -52 30 -99 34 -104 5 -4 21
-4 37 2 22 8 24 11 8 11 -32 1 -43 18 -62 99 -17 73 -17 75 2 89 11 8 32 17
48 20 30 6 38 24 10 22 -10 0 -32 -5 -49 -10z"/>
<path d="M1196 1799 c-5 -11 -17 -15 -37 -13 -34 4 -35 0 -9 -33 17 -22 21
-23 26 -8 5 13 9 14 15 4 12 -21 21 -4 17 33 -3 24 -6 29 -12 17z"/>
<path d="M1835 1791 c-6 -6 -22 -11 -37 -13 -15 -2 -30 -7 -34 -11 -4 -4 -23
-7 -43 -7 -26 0 -32 -3 -24 -11 13 -13 153 25 153 41 0 12 -3 13 -15 1z"/>
<path d="M1880 1768 c-36 -11 -67 -24 -68 -29 -2 -5 -8 -7 -13 -3 -13 7 -49
-5 -49 -17 0 -6 5 -7 11 -4 5 4 20 8 32 10 12 2 42 11 66 20 25 9 57 17 73 18
15 1 28 8 28 15 0 15 -2 15 -80 -10z"/>
<path d="M2025 1766 c-22 -33 -10 -59 24 -51 43 10 54 27 35 53 -20 28 -40 28
-59 -2z"/>
<path d="M1082 1768 c-7 -7 -12 -15 -12 -19 0 -16 31 -38 45 -33 20 8 19 50
-1 58 -20 8 -18 8 -32 -6z"/>
<path d="M1367 1764 c-3 -3 -3 -12 -1 -19 5 -13 -17 -26 -48 -30 -10 -1 -20
-4 -23 -7 -9 -8 6 -58 16 -58 5 0 7 11 3 24 -3 13 -1 27 6 31 7 4 13 -1 17
-13 6 -26 22 -32 53 -19 14 5 33 11 42 12 25 2 32 12 23 32 -5 10 -7 21 -7 26
1 4 -7 7 -18 7 -24 0 -27 -28 -3 -37 15 -6 14 -7 -3 -13 -22 -8 -34 5 -34 37
0 22 -13 37 -23 27z"/>
<path d="M1022 1751 c-9 -6 -11 -19 -7 -45 7 -35 25 -51 25 -21 0 8 4 15 9 15
13 0 21 27 15 45 -7 17 -22 19 -42 6z"/>
<path d="M943 1710 c6 -22 15 -40 20 -40 5 0 7 10 3 23 -3 12 -6 30 -6 40 0 9
-6 17 -14 17 -11 0 -11 -8 -3 -40z"/>
<path d="M876 1718 c-3 -13 -6 -34 -6 -47 0 -23 1 -23 19 -7 11 10 25 14 36
10 15 -6 16 -4 6 12 -15 27 -37 54 -43 54 -3 0 -8 -10 -12 -22z"/>
<path d="M1790 1703 c-30 -8 -59 -19 -65 -25 -7 -8 -2 -9 15 -4 14 4 44 12 68
18 23 5 42 14 42 19 0 5 -1 8 -2 8 -2 -1 -28 -8 -58 -16z"/>
<path d="M1232 1691 c-8 -4 -12 -19 -10 -32 2 -20 8 -24 32 -22 37 3 39 5 27
37 -11 27 -26 32 -49 17z"/>
<path d="M1787 1666 c-38 -12 -65 -24 -61 -28 3 -4 14 -3 24 2 9 5 28 11 41
14 32 6 79 24 79 31 0 7 -6 6 -83 -19z"/>
<path d="M1070 1674 c0 -24 24 -93 31 -88 5 3 6 16 3 30 -3 13 -2 24 4 24 5 0
13 -11 16 -25 4 -14 11 -23 16 -20 5 3 4 18 -2 36 -8 23 -15 29 -29 26 -12 -3
-19 0 -19 9 0 8 -4 14 -10 14 -5 0 -10 -3 -10 -6z"/>
<path d="M1160 1665 c-18 -21 -3 -57 23 -53 11 2 22 8 24 15 3 7 -3 9 -16 6
-15 -4 -21 -1 -21 11 0 9 7 16 15 16 8 0 15 5 15 10 0 15 -26 12 -40 -5z"/>
<path d="M1900 1632 c-20 -16 -24 -32 -33 -125 -6 -59 -8 -109 -5 -112 3 -3
21 1 40 9 20 9 66 18 103 22 l68 7 -7 -34 c-4 -19 -12 -64 -18 -100 l-11 -66
-68 -15 c-62 -15 -125 -45 -115 -55 2 -2 27 5 54 17 36 16 66 21 101 19 l50
-4 10 80 c6 44 13 108 17 143 3 37 13 71 24 84 17 22 19 22 121 9 137 -16 605
-80 647 -87 31 -6 32 -5 32 28 0 66 -1 66 -300 109 -270 38 -350 46 -337 32 9
-8 124 -28 282 -48 269 -33 275 -35 275 -62 0 -25 -1 -25 -62 -18 -35 3 -103
13 -153 22 -49 8 -108 17 -129 19 -22 2 -46 6 -55 8 -9 3 -47 8 -86 12 -38 3
-76 7 -85 9 -9 2 -41 6 -71 10 -50 6 -58 4 -86 -19 -18 -15 -34 -40 -38 -56
-6 -26 -11 -30 -38 -30 -18 0 -52 -5 -76 -11 -66 -15 -69 -12 -60 71 9 79 13
90 31 72 7 -7 17 -12 23 -12 5 0 2 5 -7 11 -20 11 -25 39 -7 39 5 0 7 -5 3
-12 -4 -7 -3 -8 4 -4 19 11 14 24 -10 29 -13 2 4 5 37 5 33 1 78 -3 100 -9 69
-17 103 -21 109 -11 6 10 -21 16 -124 27 -30 3 -71 8 -91 11 -25 4 -42 0 -59
-14z m979 -142 c-2 -15 -18 -43 -18 -32 -1 7 -5 11 -9 8 -4 -2 -8 3 -9 13 -1
10 6 17 18 17 10 0 19 -3 18 -6z"/>
<path d="M897 1632 c-21 -4 -43 -52 -29 -61 6 -3 11 -15 13 -26 3 -11 9 -18
14 -15 6 3 9 9 7 13 -1 4 -4 23 -7 43 -5 44 12 35 21 -11 3 -19 10 -35 16 -35
9 0 1 66 -11 85 -3 6 -14 9 -24 7z"/>
<path d="M1024 1628 c-4 -6 1 -17 10 -24 13 -9 14 -13 4 -17 -7 -2 -10 -8 -6
-12 11 -12 38 2 38 20 0 8 -8 15 -17 16 -11 0 -13 3 -5 6 6 2 12 9 12 14 0 13
-27 11 -36 -3z"/>
<path d="M1773 1628 c-24 -5 -43 -14 -43 -20 0 -6 9 -8 23 -4 12 4 34 9 50 12
15 4 27 10 27 15 0 10 0 10 -57 -3z"/>
<path d="M972 1619 c-18 -7 -23 -15 -20 -36 3 -24 7 -28 32 -26 38 3 39 5 24
41 -11 26 -16 29 -36 21z"/>
<path d="M1318 1586 c-38 -11 -68 -24 -68 -29 0 -5 10 -6 23 -2 26 8 88 25
102 28 10 2 19 17 13 21 -1 1 -33 -7 -70 -18z"/>
<path d="M1804 1555 c-4 -9 -2 -21 4 -27 15 -15 44 -1 40 19 -4 23 -36 29 -44
8z"/>
<path d="M1175 1548 c-22 -6 -43 -16 -47 -22 -6 -8 -8 -8 -8 0 0 10 -28 3
-140 -34 -26 -9 -29 -9 -60 -11 -21 -1 -28 -5 -24 -15 5 -12 13 -12 57 1 29 8
64 17 80 20 15 3 27 8 27 12 0 4 14 8 30 9 17 1 51 9 76 18 25 8 52 13 60 10
8 -3 14 1 14 9 0 17 -9 17 -65 3z"/>
<path d="M1496 1516 c-22 -7 -41 -17 -43 -23 -4 -12 95 13 112 28 13 12 -21
10 -69 -5z"/>
<path d="M1415 1491 c-11 -5 -53 -16 -92 -26 -40 -10 -73 -22 -73 -26 0 -5 3
-9 7 -9 14 0 128 33 138 40 6 4 18 6 28 5 9 -2 17 3 17 11 0 8 -1 14 -2 13 -2
0 -12 -4 -23 -8z"/>
<path d="M1563 1493 c-13 -2 -23 -9 -23 -15 0 -6 12 -8 31 -4 17 3 37 6 43 6
6 0 4 5 -4 10 -8 5 -17 9 -20 8 -3 0 -15 -3 -27 -5z"/>
<path d="M1485 1470 c-11 -4 -49 -16 -85 -26 -36 -10 -69 -21 -75 -25 -5 -4
-14 -7 -20 -7 -5 0 -11 -5 -13 -10 -1 -5 29 2 68 14 38 13 85 26 105 30 19 3
35 10 35 15 0 5 7 6 15 3 8 -4 15 -1 15 5 0 13 -16 13 -45 1z"/>
<path d="M1568 1452 c-32 -9 -58 -20 -58 -25 0 -5 10 -6 23 -3 12 4 30 9 40
11 40 9 57 17 57 26 0 5 -1 9 -2 8 -2 0 -29 -8 -60 -17z"/>
<path d="M2160 1431 c-14 -27 -14 -26 25 -28 32 -3 35 0 35 23 0 27 -20 24
-21 -4 0 -12 -3 -11 -9 6 -11 27 -16 28 -30 3z"/>
<path d="M1193 1430 c-37 -15 -27 -29 12 -17 19 6 35 14 35 19 0 10 -18 9 -47
-2z"/>
<path d="M1420 1411 c-30 -11 -70 -22 -87 -26 -18 -4 -33 -11 -33 -16 0 -6 -4
-7 -10 -4 -5 3 -10 1 -10 -5 0 -11 39 -4 50 9 3 3 14 7 25 8 39 3 145 36 145
44 0 13 -18 11 -80 -10z"/>
<path d="M1590 1418 c-14 -6 -32 -12 -40 -14 -8 -1 -22 -5 -30 -7 -8 -2 -30
-8 -48 -12 -18 -4 -35 -12 -38 -16 -3 -5 -9 -7 -14 -4 -5 3 -21 0 -37 -6 -15
-7 -32 -13 -38 -15 -44 -11 -135 -37 -210 -59 -49 -14 -97 -28 -105 -30 -51
-11 -70 -18 -70 -26 0 -12 -2 -13 113 22 56 17 109 32 117 34 8 2 65 17 125
35 61 17 158 45 218 62 59 17 107 34 107 39 0 12 -19 10 -50 -3z"/>
<path d="M1105 1403 c-27 -8 -69 -19 -92 -25 -24 -6 -43 -15 -43 -20 0 -10 -3
-11 60 8 29 9 62 17 73 19 37 8 57 16 57 26 0 5 -1 9 -2 8 -2 0 -25 -7 -53
-16z"/>
<path d="M1245 1401 c-11 -5 -23 -7 -27 -4 -5 2 -8 -3 -8 -11 0 -12 6 -13 32
-5 18 5 34 9 35 9 2 0 3 5 3 10 0 12 -7 12 -35 1z"/>
<path d="M1143 1370 c-21 -9 -62 -17 -90 -19 -7 -1 -13 -6 -13 -12 0 -7 9 -9
23 -5 12 4 34 9 48 11 38 6 99 33 74 34 -11 0 -30 -4 -42 -9z"/>
<path d="M1226 1353 c-3 -4 -14 -7 -24 -8 -36 -4 -132 -37 -132 -46 0 -12 -8
-13 85 16 44 14 88 25 98 25 9 0 17 5 17 10 0 11 -33 14 -44 3z"/>
<path d="M2146 1344 c-9 -23 -8 -25 12 -16 18 9 36 8 95 -3 26 -5 37 -4 37 5
0 7 7 5 17 -6 12 -11 18 -13 21 -5 6 17 -4 25 -36 27 -15 1 -52 5 -84 8 -45 4
-57 2 -62 -10z"/>
<path d="M465 1331 c-3 -10 -7 -38 -9 -62 -9 -93 -19 -144 -30 -151 -7 -5 -6
-8 4 -9 10 0 9 -3 -4 -8 -19 -7 -19 -8 2 -13 13 -4 22 -1 23 5 1 7 2 23 4 37
2 14 6 48 9 75 3 28 8 71 12 98 6 47 0 63 -11 28z"/>
<path d="M2363 1343 c-13 -3 -23 -12 -23 -21 0 -15 2 -15 10 -2 8 13 10 13 10
1 0 -11 4 -9 14 5 14 19 14 19 13 -1 -2 -24 39 -30 48 -7 4 10 1 12 -10 8 -9
-3 -18 1 -21 9 -4 8 -9 14 -13 14 -3 -1 -16 -4 -28 -6z"/>
<path d="M2451 1318 c0 -27 2 -29 8 -13 8 20 8 20 13 0 4 -14 6 -10 7 13 1 22
-4 32 -14 32 -10 0 -15 -10 -14 -32z"/>
<path d="M2491 1324 c-1 -29 2 -32 35 -39 20 -3 38 -4 41 -1 3 3 14 1 24 -5
14 -7 19 -6 19 3 0 8 3 9 8 3 4 -5 12 -11 17 -11 6 -1 20 -5 33 -9 15 -4 22
-2 22 7 0 10 3 9 10 -2 9 -13 10 -13 10 0 0 10 3 11 8 4 4 -6 17 -14 30 -18
18 -6 22 -4 22 14 0 12 -4 18 -10 15 -5 -3 -10 2 -10 12 0 11 -3 14 -8 7 -10
-15 -94 -26 -85 -11 4 6 0 8 -11 4 -12 -5 -19 0 -26 16 -6 15 -9 17 -9 6 -1
-22 -51 -13 -51 10 -1 15 -1 15 -10 -1 -12 -20 -47 -13 -53 11 -3 9 -5 2 -6
-15z"/>
<path d="M996 1330 c-16 -5 -33 -7 -37 -4 -9 5 -23 -15 -16 -22 7 -8 87 18 87
28 0 4 -1 8 -2 7 -2 0 -16 -5 -32 -9z"/>
<path d="M2933 1314 c-3 -8 -1 -20 5 -26 16 -16 42 -2 42 22 0 24 -38 28 -47
4z"/>
<path d="M1547 1309 c-10 -6 -31 -12 -46 -14 -44 -6 -131 -36 -131 -46 0 -11
3 -11 37 2 31 12 29 11 126 36 37 9 67 20 67 25 0 11 -31 9 -53 -3z"/>
<path d="M571 1262 c-1 -39 3 -54 14 -59 25 -9 26 0 6 58 l-20 54 0 -53z"/>
<path d="M1023 1298 c-40 -10 -45 -31 -5 -22 28 7 49 21 41 27 -2 2 -19 0 -36
-5z"/>
<path d="M1630 1290 c-8 -5 -25 -10 -37 -10 -13 0 -23 -4 -23 -10 0 -12 1 -12
56 1 24 6 44 15 44 20 0 12 -21 11 -40 -1z"/>
<path d="M2135 1279 c-8 -12 0 -22 20 -25 9 -1 15 6 15 17 0 20 -24 26 -35 8z"/>
<path d="M1505 1258 c-16 -6 -37 -13 -45 -16 -19 -6 -28 -9 -60 -15 -36 -7
-60 -18 -60 -26 0 -4 50 6 110 23 61 16 110 33 110 38 0 10 -17 9 -55 -4z"/>
<path d="M1160 1250 c-20 -13 -10 -19 22 -13 15 3 25 9 22 14 -7 12 -25 11
-44 -1z"/>
<path d="M1333 1253 c-13 -2 -23 -9 -23 -14 0 -6 -4 -7 -10 -4 -5 3 -10 1 -10
-4 0 -6 4 -11 10 -11 16 0 60 23 60 32 0 4 -1 7 -2 7 -2 -1 -13 -4 -25 -6z"/>
<path d="M1615 1244 c-22 -7 -52 -15 -67 -16 -16 -1 -28 -8 -28 -14 0 -9 18
-7 66 6 37 11 69 22 72 25 13 12 -6 12 -43 -1z"/>
<path d="M1040 1218 c-71 -22 -76 -25 -68 -34 7 -7 88 17 88 26 0 3 17 6 37 6
20 0 38 4 40 10 5 16 -28 13 -97 -8z"/>
<path d="M1205 1210 c-27 -10 -62 -19 -77 -19 -15 -1 -30 -6 -33 -11 -4 -6
-15 -8 -26 -5 -12 4 -19 2 -19 -8 0 -9 9 -12 30 -9 17 2 30 7 30 11 0 4 8 7
18 8 9 1 35 7 57 13 22 6 52 14 68 17 15 3 27 9 27 14 0 13 -18 10 -75 -11z"/>
<path d="M1665 1222 c-9 -7 -137 -46 -190 -57 -66 -14 -149 -43 -153 -54 -3
-10 1 -10 14 -3 11 5 43 15 72 22 28 6 52 16 52 22 0 5 5 6 10 3 6 -4 43 3 83
15 39 12 87 27 105 32 17 5 32 14 32 19 0 11 -13 12 -25 1z"/>
<path d="M2126 1215 c4 -8 9 -13 13 -11 3 2 25 1 49 -4 44 -8 56 2 22 20 -14
8 -20 8 -20 0 0 -7 -6 -8 -19 0 -29 15 -51 13 -45 -5z"/>
<path d="M1466 1204 c-22 -8 -51 -16 -64 -19 -45 -8 -92 -27 -92 -36 0 -6 4
-7 10 -4 5 3 18 8 27 10 10 3 47 12 83 21 60 14 90 28 79 38 -2 2 -22 -3 -43
-10z"/>
<path d="M307 1198 c-12 -9 -20 -38 -28 -102 -12 -97 -8 -108 43 -120 l26 -6
5 78 c3 42 8 94 12 115 5 23 3 37 -3 37 -6 0 -16 2 -24 5 -7 3 -21 0 -31 -7z
m7 -167 c-12 -13 -23 20 -17 50 l7 34 7 -40 c4 -22 5 -42 3 -44z"/>
<path d="M1310 1202 c-8 -3 -26 -9 -40 -15 -14 -5 -34 -11 -45 -12 -27 -3
-137 -34 -143 -40 -15 -15 11 -13 74 6 88 26 83 24 127 34 20 4 40 12 43 17 8
13 2 16 -16 10z"/>
<path d="M2240 1201 c0 -5 17 -12 38 -15 63 -12 192 -17 192 -8 0 8 -11 11
-60 15 -14 1 -29 7 -33 12 -5 6 -7 3 -3 -7 4 -15 -1 -18 -24 -18 -30 0 -41 15
-18 22 7 3 -11 5 -40 7 -28 1 -52 -3 -52 -8z"/>
<path d="M2988 1150 c-3 -36 -5 -67 -2 -69 11 -11 15 12 12 70 l-3 64 -7 -65z"/>
<path d="M1678 1185 c-6 -6 -53 -17 -75 -18 -7 0 -13 -4 -13 -9 0 -4 -3 -7 -7
-7 -5 1 -11 0 -15 -1 -5 -1 -18 -3 -30 -4 -12 0 -23 -7 -26 -15 -4 -11 2 -12
24 -6 16 4 35 8 42 8 6 0 12 4 12 9 0 4 3 7 8 6 13 -4 102 26 102 34 0 9 -14
11 -22 3z"/>
<path d="M2480 1179 c0 -12 12 -17 58 -24 34 -5 42 -3 42 10 0 10 -10 15 -27
16 -16 0 -38 2 -50 3 -13 2 -23 -1 -23 -5z"/>
<path d="M690 1165 c-13 -16 -5 -55 12 -55 6 0 6 -6 -2 -15 -17 -21 -13 -23
38 -17 45 4 52 16 26 48 -8 10 -12 13 -9 6 5 -10 0 -13 -21 -10 -20 2 -30 10
-32 23 -3 16 -1 18 9 8 20 -20 31 -15 17 7 -15 24 -22 25 -38 5z"/>
<path d="M2120 1165 c0 -6 20 -12 48 -14 36 -2 44 1 35 9 -15 16 -83 20 -83 5z"/>
<path d="M2600 1166 c0 -16 60 -28 75 -15 5 5 1 9 -12 9 -12 0 -25 5 -28 10
-9 15 -35 12 -35 -4z"/>
<path d="M607 1109 c-5 -60 3 -92 20 -75 11 11 8 98 -4 120 -8 14 -11 5 -16
-45z"/>
<path d="M2035 1095 c-4 -42 -5 -79 -2 -81 2 -3 8 29 12 71 4 42 5 79 2 81 -2
3 -8 -29 -12 -71z"/>
<path d="M2220 1154 c0 -11 8 -15 28 -13 15 1 45 0 67 -4 96 -16 145 -18 145
-8 0 6 -10 12 -22 13 -37 2 -42 3 -55 11 -7 5 -13 4 -13 -2 0 -5 -10 -7 -22
-4 -13 3 -40 6 -61 8 -20 1 -40 5 -44 9 -11 11 -23 6 -23 -10z"/>
<path d="M2690 1156 c0 -7 14 -16 31 -20 45 -9 59 -8 59 5 0 7 -10 9 -25 7
-13 -3 -23 -1 -22 5 1 5 -8 11 -20 13 -15 2 -23 -1 -23 -10z"/>
<path d="M1241 1139 c-29 -10 -65 -20 -79 -22 -14 -2 -27 -8 -29 -14 -2 -6 16
-5 49 3 85 22 118 35 118 45 0 5 -1 9 -2 8 -2 0 -27 -9 -57 -20z"/>
<path d="M2790 1141 c0 -10 69 -25 78 -17 9 10 -2 15 -41 20 -20 3 -37 1 -37
-3z"/>
<path d="M2475 1131 c-3 -6 1 -13 9 -16 9 -3 23 -7 32 -10 9 -3 12 -1 8 7 -5
8 -2 9 9 5 10 -3 17 -2 17 3 0 6 -9 10 -19 10 -11 0 -26 3 -34 6 -8 3 -18 1
-22 -5z"/>
<path d="M1017 1118 c-15 -5 -25 -13 -22 -17 5 -10 75 11 75 21 0 10 -18 9
-53 -4z"/>
<path d="M1468 1125 c-3 -3 -18 -8 -34 -11 -16 -2 -46 -11 -67 -19 -20 -8 -46
-15 -57 -15 -11 0 -20 -4 -20 -10 0 -5 -3 -9 -7 -8 -14 3 -123 -25 -123 -31 0
-4 -12 -8 -27 -9 -42 -3 -118 -28 -107 -35 9 -5 185 36 205 48 5 4 17 8 26 10
66 15 243 71 243 78 0 8 -24 10 -32 2z"/>
<path d="M2150 1116 c0 -10 9 -16 25 -16 14 0 25 5 25 10 0 6 -4 10 -9 10 -5
0 -16 3 -25 6 -11 4 -16 1 -16 -10z"/>
<path d="M2563 1118 c-2 -5 6 -9 19 -9 16 -1 12 -4 -12 -9 l-35 -7 43 -2 c24
0 41 3 38 7 -2 4 12 6 32 3 l37 -5 -30 -7 c-27 -6 -25 -7 15 -8 42 -1 81 12
69 23 -2 3 -28 6 -57 8 -28 2 -52 5 -52 8 0 8 -61 6 -67 -2z"/>
<path d="M1248 1102 c-58 -21 -75 -37 -28 -27 19 4 37 10 40 14 3 3 11 6 18 7
27 2 32 4 32 14 0 13 -5 12 -62 -8z"/>
<path d="M2212 1108 c2 -6 17 -13 34 -15 16 -1 42 -5 57 -8 18 -3 27 -1 25 6
-2 6 -8 11 -13 11 -6 0 -18 4 -27 9 -10 6 -19 5 -23 -1 -4 -6 -15 -6 -31 0
-19 8 -25 7 -22 -2z"/>
<path d="M1080 1097 c-19 -6 -38 -15 -41 -20 -4 -5 -12 -6 -18 -3 -6 4 -11 1
-11 -7 0 -11 9 -11 52 4 29 9 54 22 56 28 2 6 2 11 0 10 -1 -1 -19 -6 -38 -12z"/>
<path d="M2765 1102 c3 -7 -2 -15 -12 -19 -11 -5 16 -12 72 -18 100 -12 112
-10 91 11 -17 17 -52 19 -62 3 -4 -7 -9 -7 -13 -1 -10 16 -51 25 -51 11 0 -7
-7 -5 -16 7 -8 10 -13 13 -9 6z"/>
<path d="M2340 1090 c0 -9 22 -15 44 -11 4 1 14 -4 22 -10 11 -9 14 -8 14 4 0
8 -7 18 -16 21 -25 9 -64 7 -64 -4z"/>
<path d="M2450 1086 c0 -9 6 -16 13 -17 14 -1 33 -3 100 -13 26 -4 47 -3 47 2
0 5 -28 13 -62 17 -77 10 -70 9 -85 18 -9 5 -13 3 -13 -7z"/>
<path d="M2110 1072 c0 -14 30 -23 77 -22 21 0 55 -3 76 -6 22 -4 37 -2 37 4
0 5 -28 12 -62 16 -35 4 -78 9 -95 13 -20 3 -33 1 -33 -5z"/>
<path d="M1100 1058 c-19 -5 -47 -12 -62 -15 -18 -3 -25 -10 -21 -19 3 -9 10
-11 17 -6 6 5 32 15 59 22 26 7 47 17 47 21 0 5 -1 9 -2 8 -2 -1 -19 -5 -38
-11z"/>
<path d="M2623 1055 c0 -10 6 -13 19 -9 10 3 26 0 34 -7 13 -10 17 -10 24 2 7
10 3 16 -18 20 -46 11 -59 10 -59 -6z"/>
<path d="M2310 1047 c0 -7 12 -12 28 -13 15 0 44 -4 65 -8 23 -4 37 -3 37 3 0
6 -17 13 -37 16 -21 3 -50 8 -65 10 -18 3 -28 0 -28 -8z"/>
<path d="M2720 1048 c0 -4 7 -8 15 -8 8 0 15 -4 15 -9 0 -5 9 -7 20 -4 31 8
24 20 -15 25 -19 2 -35 0 -35 -4z"/>
<path d="M440 1050 c-1 -3 -3 -21 -5 -40 -3 -19 -7 -48 -9 -65 -3 -16 -5 -35
-5 -42 -1 -6 -9 -13 -18 -15 -12 -2 -14 -6 -6 -11 17 -11 43 20 43 51 0 15 4
41 9 57 4 17 5 39 0 50 -4 11 -8 18 -9 15z"/>
<path d="M2140 1014 c0 -12 10 -15 43 -13 24 2 48 -1 55 -5 7 -4 12 -3 12 1 0
13 -39 34 -45 24 -3 -6 -18 -6 -35 -1 -24 7 -30 6 -30 -6z"/>
<path d="M2594 1012 c7 -12 76 -13 76 -2 0 6 -18 10 -41 10 -22 0 -38 -4 -35
-8z"/>
<path d="M2693 1006 c2 -6 12 -10 21 -10 9 1 16 -1 16 -5 0 -3 20 -7 45 -9 26
-2 45 2 45 8 0 5 -8 10 -17 11 -10 0 -40 4 -66 8 -33 6 -46 5 -44 -3z"/>
<path d="M2290 999 c0 -5 9 -9 20 -9 11 0 20 -5 20 -11 0 -8 4 -9 13 0 8 6 17
8 20 4 4 -3 7 -1 7 5 0 7 -3 12 -7 13 -57 6 -73 6 -73 -2z"/>
<path d="M2016 924 c-4 -42 -5 -78 -2 -81 2 -2 7 30 11 72 4 42 5 78 3 81 -3
2 -8 -30 -12 -72z"/>
<path d="M2380 991 c0 -12 82 -25 110 -18 11 3 23 1 26 -4 7 -12 44 -11 44 1
0 6 -6 11 -12 11 -7 1 -26 2 -43 4 -16 1 -51 5 -77 9 -30 5 -48 3 -48 -3z"/>
<path d="M2830 989 c0 -5 8 -9 18 -10 9 0 25 -2 35 -4 9 -2 17 1 17 6 0 5 -8
9 -17 10 -10 0 -26 2 -35 4 -10 2 -18 -1 -18 -6z"/>
<path d="M1734 964 c3 -9 6 -22 6 -30 0 -8 7 -14 15 -14 8 0 15 5 15 10 0 6
-5 10 -11 10 -6 0 -8 9 -4 20 5 15 2 20 -10 20 -12 0 -15 -5 -11 -16z"/>
<path d="M2100 970 c0 -6 6 -10 13 -10 6 0 23 -3 36 -7 17 -4 22 -2 19 7 -5
15 -68 24 -68 10z"/>
<path d="M2180 966 c0 -9 8 -16 18 -17 9 0 27 -2 40 -3 12 -2 22 1 22 6 0 7
-24 12 -44 9 -4 -1 -14 4 -22 10 -11 9 -14 8 -14 -5z"/>
<path d="M2630 965 c0 -11 11 -15 42 -15 48 0 42 16 -9 25 -25 4 -33 2 -33
-10z"/>
<path d="M576 933 c-10 -63 -8 -83 9 -77 10 4 16 21 16 48 l2 41 7 -40 7 -40
2 38 c1 25 -4 40 -14 43 -8 4 -12 10 -9 15 3 5 1 9 -4 9 -5 0 -12 -17 -16 -37z"/>
<path d="M790 964 c0 -15 22 -44 31 -39 11 7 -7 45 -21 45 -6 0 -10 -3 -10 -6z"/>
<path d="M2322 949 c5 -16 58 -25 58 -10 0 6 -6 11 -14 11 -8 0 -22 3 -32 7
-12 4 -15 2 -12 -8z"/>
<path d="M2720 952 c0 -9 89 -23 99 -15 9 7 -8 13 -52 19 -30 4 -47 3 -47 -4z"/>
<path d="M2843 953 c-7 -3 -13 -8 -13 -12 0 -4 6 -8 13 -8 6 0 23 -3 36 -7 17
-6 22 -5 19 4 -5 16 -38 29 -55 23z"/>
<path d="M328 920 c-19 -90 13 -112 191 -130 142 -14 162 -9 160 34 -1 20 -2
20 -6 1 -3 -11 -8 -24 -13 -28 -11 -12 -270 22 -297 39 -17 11 -23 25 -25 66
-3 50 -3 51 -10 18z"/>
<path d="M2430 937 c0 -10 21 -16 82 -21 45 -4 88 -12 95 -18 10 -8 13 -6 13
11 0 15 -6 21 -22 21 -53 1 -151 11 -159 16 -5 3 -9 -1 -9 -9z"/>
<path d="M2153 916 c2 -6 21 -12 41 -14 27 -2 37 0 34 9 -2 7 -21 13 -41 14
-22 0 -36 -3 -34 -9z"/>
<path d="M680 889 c0 -24 5 -36 13 -36 6 1 28 -2 47 -7 21 -4 47 -3 64 4 38
14 28 22 -13 10 -42 -12 -76 1 -95 37 l-15 28 -1 -36z"/>
<path d="M2320 905 c0 -8 1 -15 3 -16 35 -8 97 -9 97 0 0 6 -14 11 -31 11 -17
0 -39 5 -50 10 -15 8 -19 7 -19 -5z"/>
<path d="M2630 912 c0 -5 6 -9 13 -9 6 0 34 -3 61 -7 38 -6 47 -5 44 6 -5 15
-118 24 -118 10z"/>
<path d="M2760 908 c0 -8 6 -15 13 -16 82 -11 127 -13 127 -4 0 5 -24 12 -52
14 -29 3 -61 9 -70 13 -12 5 -18 3 -18 -7z"/>
<path d="M2240 902 c0 -4 16 -9 35 -10 19 -2 35 2 35 8 0 5 -16 10 -35 10 -19
0 -35 -4 -35 -8z"/>
<path d="M2480 881 c0 -6 12 -12 28 -12 15 -1 37 -3 50 -4 12 -1 22 2 22 6 0
5 -3 9 -7 10 -5 0 -27 2 -50 5 -27 3 -43 1 -43 -5z"/>
<path d="M2090 871 c0 -5 18 -11 40 -13 24 -2 40 1 40 7 0 6 -18 12 -40 13
-22 2 -40 -1 -40 -7z"/>
<path d="M2590 870 c0 -6 6 -10 13 -11 6 0 22 -2 35 -3 12 -2 22 3 22 9 0 7
-16 12 -35 13 -19 1 -35 -3 -35 -8z"/>
<path d="M2680 865 c0 -8 6 -15 13 -16 6 0 29 -2 50 -4 20 -1 37 1 37 6 0 5
-9 9 -20 9 -26 0 -31 1 -57 11 -18 6 -23 5 -23 -6z"/>
<path d="M2180 862 c0 -5 20 -9 45 -11 26 -1 45 2 45 9 0 5 -20 10 -45 10 -25
0 -45 -4 -45 -8z"/>
<path d="M2790 859 c0 -16 42 -29 95 -29 36 0 1 20 -40 22 -22 2 -43 8 -47 13
-5 6 -8 3 -8 -6z"/>
<path d="M2280 851 c0 -6 17 -11 38 -12 20 0 45 -2 55 -4 19 -4 24 11 5 17
-29 10 -98 9 -98 -1z"/>
<path d="M2405 841 c-3 -8 -3 -13 0 -9 4 3 20 2 36 -2 22 -6 29 -5 29 5 0 19
-58 25 -65 6z"/>
<path d="M2087 834 c-16 -17 -4 -24 38 -24 25 0 45 5 45 10 0 6 -11 10 -24 10
-13 0 -31 2 -38 5 -8 3 -17 2 -21 -1z"/>
<path d="M2520 830 c0 -11 41 -19 126 -24 33 -2 81 -7 107 -11 36 -6 47 -4 47
6 0 10 -20 15 -78 17 -42 2 -83 8 -89 14 -9 7 -13 7 -13 0 0 -5 -8 -9 -17 -7
-61 12 -83 13 -83 5z"/>
<path d="M2180 811 c0 -5 18 -11 40 -13 45 -4 72 5 45 16 -25 9 -85 7 -85 -3z"/>
<path d="M1983 788 c-33 -37 -58 -80 -82 -138 -13 -30 -25 -60 -28 -67 -3 -7
12 -14 44 -18 26 -4 58 -14 71 -22 22 -13 23 -19 17 -81 -16 -175 -16 -176
-129 -166 -44 3 -92 13 -105 21 -22 14 -23 18 -17 97 8 95 -11 85 -20 -12 -5
-52 -3 -62 17 -86 21 -23 36 -29 103 -37 125 -16 151 2 163 111 3 33 10 60 15
60 9 0 5 35 -9 83 -3 11 -29 29 -58 43 -51 22 -53 25 -46 51 13 45 51 113 66
119 7 3 25 -2 38 -11 16 -10 71 -21 147 -30 67 -7 124 -16 128 -20 4 -3 -3
-14 -15 -23 -15 -12 -24 -32 -28 -67 -6 -43 -4 -53 15 -73 25 -27 60 -25 116
5 30 15 32 20 38 96 4 44 4 82 2 85 -3 3 -89 13 -190 22 -188 17 -216 25 -216
61 0 25 -12 24 -37 -3z m380 -109 c20 -5 37 -14 37 -19 0 -13 -17 -13 -25 0
-3 6 -17 10 -30 10 -13 0 -27 5 -30 10 -8 13 1 12 48 -1z m10 -46 c8 -5 9 -65
1 -87 -4 -10 -18 -16 -35 -16 -16 0 -29 -5 -29 -12 0 -6 -9 -3 -20 7 -22 20
-27 73 -9 106 8 16 16 19 47 13 20 -4 40 -9 45 -11z"/>
<path d="M2290 800 c0 -5 15 -10 34 -10 19 0 41 -3 50 -6 10 -4 16 -1 16 8 0
11 -14 15 -50 17 -28 1 -50 -3 -50 -9z"/>
<path d="M2810 802 c0 -11 69 -27 78 -18 9 9 0 14 -40 21 -24 5 -38 3 -38 -3z"/>
<path d="M2400 791 c0 -9 81 -23 90 -15 2 3 -2 9 -10 14 -19 12 -80 13 -80 1z"/>
<path d="M2450 701 c0 -16 162 -33 176 -18 10 10 -12 15 -98 22 -47 3 -78 2
-78 -4z"/>
<path d="M2646 668 c-3 -13 -7 -51 -9 -85 -5 -61 -4 -63 18 -63 13 0 25 6 28
13 2 6 7 9 11 6 13 -13 -7 -38 -35 -44 -46 -10 -35 -28 13 -21 44 6 61 16 41
23 -18 7 -16 21 4 25 12 2 7 10 -20 28 -39 26 -38 21 -21 110 4 23 2 30 -10
30 -9 0 -18 -10 -20 -22z"/>
<path d="M2720 679 c0 -12 50 -20 67 -10 12 6 6 10 -25 13 -23 2 -42 1 -42 -3z"/>
<path d="M2485 650 c-9 -10 -15 -26 -12 -35 10 -23 26 -18 19 7 -4 16 -2 20
10 15 12 -4 14 -1 11 14 -6 23 -6 23 -28 -1z"/>
<path d="M2554 638 c-19 -21 -19 -21 4 -16 24 7 32 -16 10 -25 -8 -3 -7 -6 4
-6 23 -1 31 15 24 45 -8 30 -17 30 -42 2z"/>
<path d="M1093 602 c-12 -2 -27 -10 -35 -19 -14 -18 -18 -18 81 3 40 8 66 -20
82 -90 12 -56 29 -76 29 -35 0 19 2 20 17 8 15 -13 15 -12 0 12 -10 14 -14 29
-10 32 3 4 1 7 -5 7 -7 0 -12 5 -12 10 0 6 9 10 20 10 11 0 20 -4 20 -10 0 -5
10 -10 23 -10 31 0 5 17 -50 31 -24 6 -41 14 -39 18 3 4 1 13 -5 21 -7 12 -9
12 -9 1 0 -11 -3 -11 -15 -1 -16 13 -55 18 -92 12z"/>
<path d="M2494 579 c-24 -27 -8 -53 35 -57 52 -5 56 50 4 69 -15 6 -26 2 -39
-12z"/>
<path d="M1124 540 c-26 -10 -38 -26 -25 -34 5 -3 11 1 15 9 6 17 42 20 51 5
3 -5 3 -15 -1 -21 -5 -8 -9 -8 -14 1 -6 9 -13 7 -28 -6 -24 -20 -14 -44 18
-44 16 0 40 43 40 71 0 15 -35 27 -56 19z"/>
<path d="M2395 499 c-10 -19 -24 -41 -32 -51 -13 -15 -8 -17 62 -23 71 -7 78
-6 101 16 28 26 31 42 7 35 -36 -10 -97 8 -109 33 l-12 24 -17 -34z"/>
<path d="M1877 500 c-54 -16 -82 -90 -34 -90 12 -1 39 -3 60 -6 33 -5 38 -3
35 12 -1 10 -7 17 -13 16 -5 0 -13 8 -17 19 -9 23 -34 20 -32 -4 2 -21 -23
-30 -30 -11 -6 14 14 39 50 61 22 14 19 14 -19 3z"/>
<path d="M1916 492 c-2 -4 -1 -14 4 -22 7 -11 12 -12 21 -3 6 6 8 16 5 22 -8
13 -23 14 -30 3z"/>
<path d="M961 474 c-1 -15 30 -117 34 -112 2 2 -4 31 -14 63 -11 33 -20 55
-20 49z"/>
</g>
</svg>
