<?xml version="1.0" standalone="no"?>
<!DOCTYPE svg PUBLIC "-//W3C//DTD SVG 20010904//EN"
 "http://www.w3.org/TR/2001/REC-SVG-20010904/DTD/svg10.dtd">
<svg version="1.0" xmlns="http://www.w3.org/2000/svg"
 width="300.000000pt" height="300.000000pt" viewBox="0 0 300.000000 300.000000"
 preserveAspectRatio="xMidYMid meet">
<metadata>
Created by potrace 1.10, written by Peter Selinger 2001-2011
</metadata>
<g transform="translate(0.000000,300.000000) scale(0.100000,-0.100000)"
fill="#000000" stroke="none">
<path d="M1487 2758 c9 -18 16 -38 15 -45 -3 -13 77 -178 83 -172 1 2 -6 52
-17 110 -19 104 -20 106 -54 123 -46 22 -47 21 -27 -16z"/>
<path d="M1055 2764 c-6 -2 -9 -37 -7 -84 l4 -81 36 7 c53 9 87 45 87 93 0 53
-18 71 -69 70 -22 0 -45 -2 -51 -5z m83 -64 c3 -24 -2 -38 -14 -47 -34 -25
-44 -16 -44 38 0 49 1 50 28 47 23 -3 28 -8 30 -38z"/>
<path d="M963 2748 c-48 -10 -49 -13 -37 -115 7 -57 10 -58 67 -42 50 14 52
43 2 33 -28 -5 -35 -3 -35 10 0 10 11 19 30 23 17 3 30 12 30 20 0 12 -8 14
-36 9 -31 -6 -35 -5 -32 11 2 11 15 20 33 23 18 3 31 12 33 23 4 19 4 19 -55
5z"/>
<path d="M1377 2692 c-49 -49 -56 -62 -34 -62 21 1 111 86 103 98 -11 19 -19
15 -69 -36z"/>
<path d="M1785 2715 c-45 -44 -27 -125 31 -139 61 -16 122 44 109 105 -13 60
-95 80 -140 34z m83 -17 c18 -18 14 -49 -10 -75 -21 -22 -45 -32 -34 -14 3 5
-1 14 -9 21 -19 16 -19 26 3 55 19 27 32 31 50 13z"/>
<path d="M2243 2673 c4 -38 7 -81 7 -98 1 -23 9 -11 36 55 19 47 37 91 41 98
4 9 -8 12 -42 12 l-48 0 6 -67z"/>
<path d="M863 2722 c-9 -6 -9 -26 -1 -82 6 -41 12 -76 13 -78 1 -1 9 0 16 3
12 5 13 18 4 79 -11 80 -14 89 -32 78z"/>
<path d="M761 2697 c-33 -10 -33 -11 -27 -61 13 -102 17 -115 33 -109 11 4 14
15 10 39 -5 30 -3 33 24 39 20 5 29 13 29 26 0 16 -4 17 -27 8 -19 -7 -28 -7
-34 3 -11 17 -4 25 31 31 18 4 30 13 30 22 0 17 -20 18 -69 2z"/>
<path d="M668 2665 c-11 -11 25 -155 38 -155 17 0 17 3 3 91 -11 62 -23 81
-41 64z"/>
<path d="M2526 2643 c-9 -49 -18 -153 -13 -153 5 0 41 143 42 164 1 23 -24 14
-29 -11z"/>
<path d="M603 2642 c-6 -4 -13 -30 -15 -57 l-3 -50 -22 38 c-23 38 -30 42 -50
29 -13 -8 14 -162 29 -162 16 0 20 27 10 64 -13 46 3 47 19 1 19 -53 39 -45
39 16 0 31 4 48 10 44 6 -3 10 -22 10 -41 0 -27 4 -35 16 -32 19 4 19 0 4 86
-13 69 -21 81 -47 64z"/>
<path d="M2401 2617 c-8 -10 -7 -18 2 -30 11 -16 13 -16 24 2 16 25 -7 50 -26
28z"/>
<path d="M1391 2594 c-78 -30 -89 -39 -36 -30 105 19 135 28 135 42 0 20 -25
17 -99 -12z"/>
<path d="M2005 2587 c-17 -10 -19 -20 -15 -57 3 -25 10 -45 15 -45 14 0 35 68
24 76 -6 3 -7 13 -3 22 7 20 6 20 -21 4z"/>
<path d="M2610 2542 c-6 -31 -18 -83 -26 -116 -8 -32 -13 -60 -11 -62 2 -3 27
27 55 66 37 49 47 70 36 70 -11 0 -14 5 -10 16 18 48 17 60 -8 72 -24 11 -25
10 -36 -46z"/>
<path d="M1165 2565 c-33 -32 -33 -78 0 -111 19 -19 31 -23 48 -18 31 9 37 17
47 58 8 37 8 37 -23 34 -36 -4 -48 -25 -16 -30 21 -3 22 -4 6 -20 -34 -34 -72
16 -47 62 10 18 17 21 46 15 26 -4 34 -2 34 8 0 34 -62 36 -95 2z"/>
<path d="M1096 2569 c-3 -8 -7 -30 -8 -49 l-3 -35 -24 38 c-14 22 -30 37 -39
35 -9 -2 -15 -6 -14 -10 1 -5 2 -37 2 -73 0 -51 3 -65 15 -65 11 0 15 12 15
48 l1 47 24 -40 c37 -59 49 -52 53 29 3 64 -10 109 -22 75z"/>
<path d="M409 2558 c-21 -18 -15 -189 7 -181 8 3 14 13 14 24 0 24 39 46 50
29 5 -7 15 -10 24 -7 13 5 9 18 -26 76 -24 39 -46 71 -49 71 -3 0 -12 -6 -20
-12z m45 -90 c-13 -21 -34 -6 -34 25 l0 32 19 -25 c11 -13 17 -28 15 -32z"/>
<path d="M2147 2563 c-4 -3 -7 -19 -7 -33 0 -15 -6 -33 -14 -39 -24 -20 -46
-101 -46 -167 0 -53 4 -67 25 -91 28 -32 32 -19 10 34 -8 19 -14 47 -14 62 2
23 2 24 6 4 2 -13 9 -23 14 -23 5 0 9 -7 9 -15 0 -15 76 -72 85 -63 3 3 -13
19 -35 37 -38 30 -40 35 -39 84 0 29 6 70 13 92 9 33 17 41 41 45 25 5 30 10
27 30 -1 14 -4 31 -7 38 -5 13 -57 17 -68 5z"/>
<path d="M949 2543 c-7 -58 9 -143 28 -143 11 0 14 6 9 23 -3 12 -6 46 -6 75
0 39 -4 52 -15 52 -8 0 -15 -3 -16 -7z"/>
<path d="M1799 2519 c-11 -11 -18 -27 -15 -36 3 -8 6 -18 6 -22 0 -4 7 -8 15
-8 10 0 13 7 9 23 -7 29 29 52 52 33 18 -15 18 -33 -1 -49 -18 -15 -10 -31 11
-23 34 13 34 73 0 95 -21 14 -56 8 -77 -13z"/>
<path d="M894 2483 l6 -48 -25 30 c-13 17 -24 33 -25 38 0 4 -9 7 -20 7 -21 0
-21 -3 -4 -118 8 -50 30 -34 26 19 -3 48 -1 47 44 -16 23 -32 34 -6 27 68 -4
50 -10 67 -21 67 -12 0 -13 -9 -8 -47z"/>
<path d="M282 2493 c-17 -6 -42 -57 -42 -83 0 -12 7 -34 15 -50 13 -24 22 -30
49 -30 44 0 66 26 66 78 0 46 -8 50 -45 26 -28 -18 -24 -38 6 -29 22 7 23 2 9
-26 -6 -10 -17 -19 -25 -19 -21 0 -45 29 -45 54 0 24 35 64 47 53 9 -9 34 13
27 24 -6 10 -41 11 -62 2z"/>
<path d="M1455 2484 c-14 -14 -15 -69 -13 -516 l3 -500 22 -18 c12 -10 44 -21
70 -24 26 -4 55 -9 63 -12 17 -5 24 -40 9 -49 -5 -4 -9 -14 -9 -23 0 -14 4
-12 19 7 12 16 21 20 25 12 4 -6 19 -11 34 -11 21 0 30 7 39 30 9 24 15 28 37
24 14 -2 26 0 26 6 0 5 -4 10 -10 10 -16 0 -11 26 11 53 23 30 19 42 -29 82
-20 17 -30 21 -26 11 3 -9 10 -16 15 -16 5 0 9 -5 9 -11 0 -5 -4 -7 -10 -4 -6
3 -7 -1 -4 -9 7 -18 24 -22 24 -6 0 6 5 10 10 10 6 0 10 -9 10 -20 0 -11 -7
-20 -15 -20 -9 0 -18 -8 -22 -17 -10 -29 -55 -73 -75 -73 -10 0 -34 15 -53 33
l-36 32 9 64 c9 63 9 64 -9 43 -21 -27 -29 -28 -29 -4 1 36 29 93 56 115 52
41 74 46 133 27 67 -21 102 -54 120 -115 13 -43 12 -64 -5 -124 -5 -18 -4 -22
5 -16 9 5 12 2 9 -11 -2 -15 -11 -18 -35 -16 -17 2 -34 -2 -38 -8 -11 -18 15
-30 35 -18 13 8 35 7 83 -5 36 -9 73 -14 81 -11 23 9 30 46 31 161 0 100 1
103 23 103 12 0 22 -5 22 -11 0 -5 5 -7 11 -3 7 4 6 11 -5 22 -14 14 -19 14
-56 -4 l-42 -19 4 -103 4 -103 -24 6 c-14 3 -37 8 -52 12 -29 5 -31 20 -7 51
15 19 17 74 4 91 -6 7 -12 18 -13 25 -10 57 -76 130 -111 123 -13 -2 -28 1
-33 8 -20 24 -78 27 -113 8 -17 -10 -33 -21 -35 -25 -2 -5 -15 -8 -29 -8 -18
0 -24 -4 -20 -14 4 -9 -1 -16 -10 -18 -17 -3 -21 -20 -27 -113 -4 -54 9 -95
31 -95 7 0 13 -5 13 -10 0 -10 -42 -4 -68 10 -10 5 -13 77 -12 348 0 188 -3
342 -8 342 -4 0 -9 59 -11 130 l-3 130 24 0 c13 0 131 -20 262 -45 132 -25
243 -45 247 -45 9 0 11 -168 3 -182 -4 -6 -9 -39 -11 -74 -3 -47 -1 -64 8 -64
10 0 10 -3 1 -12 -8 -8 -12 -57 -11 -157 l1 -146 19 40 c15 31 19 58 17 123
-2 45 0 82 5 82 4 0 7 5 7 11 0 5 -4 7 -10 4 -6 -4 -10 6 -9 22 0 24 1 25 9 8
7 -18 8 -17 11 9 2 16 10 31 18 34 9 3 11 -2 6 -17 -3 -11 -8 -41 -11 -66 -3
-42 -2 -46 24 -57 15 -6 35 -10 45 -9 9 1 17 -3 17 -10 0 -8 12 -10 40 -5 41
6 84 -8 108 -36 13 -16 72 -23 72 -9 0 6 12 16 28 23 20 10 27 21 28 44 1 17
6 39 12 49 8 15 5 26 -16 53 -15 19 -27 42 -27 51 0 9 -9 17 -19 19 -11 2 -38
24 -62 48 -31 33 -49 44 -72 44 -16 0 -35 7 -42 15 -7 8 -27 15 -45 15 -20 0
-35 -6 -39 -15 -3 -8 -11 -15 -18 -15 -7 0 -19 -9 -26 -21 -10 -16 -10 -20 0
-18 28 3 37 -2 31 -17 -5 -13 -7 -13 -14 -2 -6 9 -9 7 -9 -9 0 -19 -36 -52
-44 -41 -2 2 0 30 5 63 4 33 8 105 8 161 1 86 -2 103 -17 117 -22 20 -106 37
-145 30 -16 -3 -44 2 -65 11 -29 12 -290 66 -323 66 -4 0 -15 -7 -24 -16z m12
-426 c-2 -18 -4 -6 -4 27 0 33 2 48 4 33 2 -15 2 -42 0 -60z m707 57 c35 -18
50 -19 40 -2 -5 8 -2 8 9 -2 12 -9 17 -10 17 -2 0 7 5 9 10 6 17 -11 11 -24
-10 -20 -11 2 -22 0 -25 -4 -8 -14 15 -68 29 -68 14 0 11 21 -5 43 -17 21 4
23 21 2 16 -20 16 -25 3 -56 -11 -26 -12 -41 -3 -65 8 -23 7 -33 -2 -39 -18
-11 -48 -10 -48 2 0 6 10 10 22 10 16 0 19 3 11 11 -6 6 -9 18 -6 25 4 10 0
12 -11 8 -9 -3 -16 -10 -16 -15 0 -4 -13 -16 -30 -26 -16 -9 -30 -21 -30 -26
0 -5 7 -4 15 3 12 10 15 10 15 -4 0 -25 -26 -19 -64 17 -47 43 -59 78 -39 107
9 12 16 33 16 47 0 19 4 24 18 20 11 -3 19 -1 19 4 0 5 -7 9 -16 9 -14 0 -14
3 -4 15 16 19 28 19 64 0z m156 -68 c0 -6 3 -7 7 -4 10 11 52 -65 53 -94 0
-15 -9 -38 -20 -52 -18 -22 -25 -25 -45 -17 -18 7 -25 6 -25 -2 0 -9 -3 -9
-12 0 -16 16 -12 117 7 179 5 15 35 6 35 -10z m-620 -657 c0 -14 -24 -23 -47
-17 -15 3 -14 6 7 15 32 14 40 14 40 2z"/>
<path d="M2120 1991 c13 -9 12 -11 -5 -11 -16 -1 -14 -4 10 -15 l30 -15 -27 4
c-15 1 -25 -1 -22 -5 8 -14 38 -10 60 6 14 11 15 15 4 14 -29 -3 -40 1 -37 12
1 6 -5 14 -13 16 -13 4 -13 3 0 -6z"/>
<path d="M717 2477 c-28 -11 -29 -13 -22 -62 9 -75 16 -96 29 -92 6 2 10 16 8
31 -3 31 8 33 32 7 10 -11 24 -17 32 -14 12 5 11 10 -6 28 -14 15 -18 25 -11
30 15 9 14 58 -1 73 -14 14 -23 14 -61 -1z m43 -36 c0 -21 -23 -45 -33 -34
-12 11 -8 41 6 46 22 9 27 7 27 -12z"/>
<path d="M2330 2479 c-13 -6 -33 -17 -42 -26 -22 -20 -24 -73 -4 -73 8 0 23
-3 33 -6 17 -5 17 -5 -1 10 -10 8 -24 12 -30 9 -6 -4 -4 4 5 17 20 31 39 37
39 13 0 -21 43 -66 73 -76 9 -4 17 -13 17 -22 0 -8 7 -15 15 -15 8 0 15 -7 15
-15 0 -8 -6 -15 -14 -15 -8 0 -27 -11 -43 -24 -16 -14 -41 -28 -56 -31 -31 -8
-37 -35 -8 -32 11 0 19 5 18 10 -1 5 4 12 12 15 8 2 11 1 8 -4 -8 -14 63 -15
108 -2 49 14 69 31 85 67 10 25 8 33 -14 66 -14 21 -26 43 -26 50 0 21 -44 53
-105 74 -32 12 -59 21 -60 20 0 0 -11 -5 -25 -10z m101 -114 l22 -40 -48 47
c-36 34 -46 51 -41 64 7 17 9 17 26 -6 11 -14 29 -43 41 -65z m4 55 c-3 -5 0
-12 6 -16 8 -5 9 -3 4 5 -5 9 -2 12 11 9 13 -2 24 -22 37 -67 14 -44 22 -59
28 -50 6 9 9 10 9 2 0 -17 -49 -53 -73 -53 -19 0 -20 1 -2 20 13 15 21 17 31
9 17 -14 -37 91 -65 127 -27 34 -27 48 -1 34 11 -6 18 -15 15 -20z"/>
<path d="M2680 2402 c-18 -42 -35 -84 -38 -92 -3 -8 18 13 46 47 43 51 51 67
46 88 -11 44 -21 36 -54 -43z"/>
<path d="M605 2430 c-4 -6 -9 -44 -12 -85 -4 -54 -3 -75 6 -75 6 0 16 11 21
24 11 29 31 38 45 20 6 -8 15 -10 22 -6 9 5 2 25 -23 70 -35 61 -47 72 -59 52z"/>
<path d="M492 2382 c-26 -13 -32 -21 -27 -37 3 -11 11 -44 17 -72 6 -29 15
-53 21 -53 16 0 77 41 77 52 0 10 -17 8 -52 -7 -29 -12 -22 24 7 37 27 12 36
45 10 34 -8 -3 -21 -9 -29 -12 -7 -3 -16 1 -19 9 -4 10 4 19 24 27 16 7 29 19
29 26 0 18 -17 17 -58 -4z"/>
<path d="M1470 2370 c0 -5 3 -10 6 -10 4 0 115 -21 247 -46 156 -30 243 -42
249 -36 11 11 6 12 -285 67 -205 38 -217 40 -217 25z"/>
<path d="M2268 2353 c-28 -14 -39 -55 -19 -67 5 -3 7 -14 5 -24 -6 -22 19 -57
35 -48 9 6 8 14 -3 32 -20 29 -20 74 -1 100 13 17 14 17 15 2 0 -21 20 -25 20
-4 0 21 -21 24 -52 9z"/>
<path d="M1281 2326 c-63 -35 -66 -131 -6 -170 18 -12 27 -12 60 0 42 14 57
32 66 81 11 62 -66 120 -120 89z m69 -41 c15 -19 5 -65 -15 -65 -8 0 -15 -4
-15 -10 0 -18 -19 -10 -35 14 -15 23 -15 27 0 50 19 29 46 34 65 11z"/>
<path d="M1325 2260 c3 -5 -1 -10 -9 -10 -9 0 -16 -7 -16 -15 0 -21 17 -19 30
4 13 25 13 31 -1 31 -5 0 -7 -4 -4 -10z"/>
<path d="M755 2206 c-310 -106 -362 -126 -374 -148 -13 -23 -12 -47 8 -209 26
-212 44 -314 49 -281 2 12 -9 121 -23 243 -25 204 -25 222 -11 245 9 13 20 24
23 24 4 0 2 -5 -5 -12 -22 -22 -12 -27 23 -12 l34 14 -19 -33 c-20 -33 -20
-35 -2 -107 18 -73 32 -77 32 -10 0 26 6 30 73 54 39 14 181 64 315 111 133
47 247 83 252 80 6 -4 9 -3 8 2 -2 4 2 10 7 13 6 3 15 -27 21 -70 7 -41 13
-66 14 -55 3 25 3 18 -5 90 -4 33 -5 57 -1 54 7 -6 36 -198 36 -238 0 -24 0
-24 -16 -5 -14 18 -15 18 -4 -4 6 -13 9 -31 6 -39 -5 -13 -4 -14 9 -3 13 10
15 9 15 -9 0 -12 5 -31 10 -41 10 -18 8 -19 -20 -14 -19 4 -38 1 -55 -10 -30
-20 -35 -20 -35 -1 0 25 -58 19 -84 -10 -13 -14 -30 -25 -39 -25 -8 0 -17 -6
-19 -12 -3 -8 -10 -4 -17 11 -8 14 -9 21 -2 17 6 -4 11 -3 11 2 0 9 -22 22
-36 22 -3 0 -3 -12 0 -27 2 -16 5 -33 5 -40 1 -7 8 -10 16 -7 11 5 15 0 14
-17 0 -13 -3 -19 -6 -12 -3 8 -10 9 -21 3 -9 -5 -51 -21 -92 -36 -84 -31 -85
-32 -78 -39 3 -3 43 8 89 25 46 16 95 30 108 30 17 0 22 4 17 16 -10 27 13 57
40 51 14 -2 27 0 30 4 11 19 24 8 14 -11 -13 -25 11 -104 33 -108 16 -3 32 31
22 48 -3 5 -1 19 5 30 9 16 8 25 0 35 -10 12 -8 13 9 10 12 -2 25 -6 30 -10 5
-3 22 0 37 5 22 9 25 8 16 -3 -9 -10 -5 -15 19 -24 16 -6 27 -8 25 -5 -2 4
-17 124 -32 266 -30 278 -34 293 -89 300 -20 3 -148 -36 -390 -118z m395 24
c0 -17 -5 -30 -12 -30 -7 0 -159 -52 -337 -115 -179 -63 -326 -114 -327 -112
-1 1 -4 11 -8 23 -6 20 13 28 286 123 161 55 316 110 343 121 28 10 51 19 53
20 1 0 2 -13 2 -30z m-392 -45 c-8 -8 -181 -65 -185 -61 -2 2 35 18 84 34 88
30 111 36 101 27z"/>
<path d="M525 2020 c-27 -11 -43 -19 -35 -20 8 0 38 9 65 20 28 10 43 19 35
19 -8 -1 -37 -9 -65 -19z"/>
<path d="M1503 2323 c4 -6 37 -16 74 -22 38 -7 78 -14 91 -17 12 -2 22 0 22 4
0 5 -30 14 -67 21 -38 6 -81 14 -97 18 -19 4 -27 2 -23 -4z"/>
<path d="M366 2312 c-4 -7 30 -141 39 -150 7 -7 75 44 75 56 0 14 -26 16 -35
2 -13 -21 -25 -8 -40 45 -15 52 -27 66 -39 47z"/>
<path d="M1700 2289 c0 -12 13 -18 48 -22 26 -4 58 -9 72 -13 19 -5 22 -4 14
5 -6 6 -35 14 -65 18 -30 3 -57 11 -61 17 -5 7 -8 5 -8 -5z"/>
<path d="M1480 2282 c0 -6 -3 -19 -6 -29 -5 -15 -4 -15 5 -3 9 14 38 10 251
-33 133 -27 244 -46 248 -43 14 15 -26 26 -233 65 -121 24 -230 45 -242 48
-13 3 -23 1 -23 -5z"/>
<path d="M2290 2270 c13 -24 42 -26 60 -5 10 13 9 15 -11 15 -19 0 -21 -2 -9
-10 12 -8 11 -10 -7 -10 -14 0 -23 6 -23 15 0 8 -5 15 -10 15 -7 0 -7 -6 0
-20z"/>
<path d="M233 2230 c-13 -15 -23 -30 -23 -33 0 -3 32 -30 70 -61 39 -31 70
-54 70 -51 0 6 -91 175 -93 174 -1 0 -12 -13 -24 -29z"/>
<path d="M2677 2219 c-26 -17 -66 -53 -90 -80 l-43 -49 -37 45 c-50 60 -77 57
-77 -7 0 -20 -1 -20 -18 -5 -10 10 -27 17 -38 17 -17 -1 -17 -2 -3 -13 9 -7
16 -15 17 -20 2 -21 11 -30 12 -12 1 11 8 0 16 -25 17 -55 17 -53 2 -45 -7 4
-2 -3 11 -14 13 -12 31 -21 40 -20 12 0 11 2 -4 8 -12 5 -21 19 -23 37 -6 56
-3 117 8 128 7 7 10 5 10 -5 0 -20 77 -82 90 -74 6 3 13 -1 16 -10 6 -14 10
-13 30 6 33 31 30 48 -3 18 -28 -24 -28 -23 1 8 16 18 33 30 38 27 5 -3 7 0 6
7 -4 16 87 79 113 79 32 0 16 -60 -36 -134 -26 -36 -43 -66 -39 -66 4 0 -11
-14 -32 -30 -22 -17 -47 -37 -56 -45 -10 -8 -18 -12 -18 -8 0 3 -9 -2 -20 -12
-24 -22 -16 -38 13 -29 39 12 96 64 151 137 65 88 86 127 86 165 0 60 -51 69
-123 21z"/>
<path d="M1504 2226 c-3 -7 -3 -35 -1 -62 l3 -49 2 59 c2 45 5 57 16 53 7 -3
35 -8 62 -11 49 -5 49 -5 9 4 -22 6 -50 12 -63 15 -14 4 -24 0 -28 -9z"/>
<path d="M1549 2188 c-1 -7 -1 -17 0 -22 1 -4 -3 -14 -9 -20 -7 -10 -2 -13 24
-14 38 -1 52 18 36 49 -12 21 -49 26 -51 7z"/>
<path d="M1790 2174 c30 -7 75 -16 100 -18 25 -3 7 3 -40 14 -96 21 -145 25
-60 4z"/>
<path d="M1640 2167 c0 -8 27 -17 73 -24 39 -7 82 -15 95 -17 12 -3 22 -1 22
5 0 5 -4 9 -10 9 -5 0 -13 1 -17 2 -67 15 -129 25 -135 22 -4 -3 -8 0 -8 5 0
6 -4 11 -10 11 -5 0 -10 -6 -10 -13z"/>
<path d="M1948 2103 c5 -76 10 -83 11 -15 0 34 -2 62 -7 62 -4 0 -6 -21 -4
-47z"/>
<path d="M1640 2132 c0 -5 39 -17 88 -26 48 -10 95 -19 105 -22 9 -3 17 -1 17
4 0 8 -41 21 -90 27 -19 2 -80 15 -102 21 -10 3 -18 1 -18 -4z"/>
<path d="M220 2104 c0 -12 112 -215 116 -211 6 6 -52 165 -71 194 -14 20 -45
33 -45 17z"/>
<path d="M1125 2091 c-6 -5 -93 -39 -195 -74 -396 -140 -469 -168 -400 -155
l25 4 23 -207 c13 -114 27 -220 32 -235 l8 -29 3 35 2 35 7 -40 7 -40 1 40 c1
22 -7 117 -18 210 -11 94 -20 180 -20 191 0 26 -18 18 245 109 116 40 218 76
227 80 14 5 18 -2 23 -42 11 -87 17 -107 25 -93 6 10 9 8 13 -6 2 -10 5 0 6
23 1 53 -21 159 -27 125 -3 -22 -5 -22 -16 -6 -12 16 -17 16 -76 -4 -35 -12
-65 -20 -67 -18 -2 2 24 13 58 25 62 21 129 59 129 74 0 9 -4 9 -15 -2z m-440
-196 c-16 -8 -37 -14 -45 -15 -29 -1 -49 -26 -53 -66 l-4 -39 -1 46 c-2 44 0
47 31 59 17 6 41 16 52 20 34 14 52 9 20 -5z"/>
<path d="M1862 2089 c2 -8 20 -15 39 -17 40 -4 30 13 -15 24 -22 5 -28 4 -24
-7z"/>
<path d="M1297 2083 c-20 -3 -27 -9 -23 -21 3 -9 8 -57 12 -107 l7 -90 25 75
c18 52 22 75 13 78 -7 2 -9 16 -5 38 3 19 5 33 3 33 -2 -1 -17 -4 -32 -6z"/>
<path d="M875 2052 c-57 -18 -60 -20 -53 -28 8 -7 108 28 108 38 0 5 -1 8 -2
7 -2 0 -25 -8 -53 -17z"/>
<path d="M169 2043 c6 -10 19 -29 30 -43 15 -19 21 -21 21 -9 0 9 -9 28 -21
43 -23 30 -46 36 -30 9z"/>
<path d="M1550 2045 c-13 -16 -6 -47 14 -65 11 -8 18 -6 30 12 20 28 20 33 0
52 -19 20 -28 20 -44 1z"/>
<path d="M783 2019 c-6 -6 -19 -12 -29 -13 -16 -2 -21 -11 -11 -18 7 -5 67 23
67 31 0 14 -13 14 -27 0z"/>
<path d="M1640 2019 c0 -9 19 -15 73 -25 21 -3 37 -2 37 3 0 5 -25 14 -55 20
-30 5 -55 6 -55 2z"/>
<path d="M1640 1988 c0 -18 11 -22 75 -33 22 -3 48 -8 58 -11 9 -3 17 -1 17 4
0 9 -111 37 -126 32 -4 -1 -11 4 -15 12 -7 10 -9 9 -9 -4z"/>
<path d="M1760 1992 c0 -5 26 -15 58 -21 31 -5 67 -13 80 -17 16 -4 22 -2 22
8 0 11 -16 17 -57 21 -32 4 -68 10 -80 13 -13 4 -23 2 -23 -4z"/>
<path d="M2755 1990 c-44 -18 -125 -136 -156 -227 -7 -21 -17 -44 -22 -50 -6
-8 -6 -13 1 -13 6 0 20 -19 31 -43 27 -56 27 -74 -1 -22 -27 53 -47 75 -68 75
-20 0 -78 -27 -102 -48 -10 -8 -18 -11 -18 -6 0 17 15 31 40 39 32 10 40 22
40 62 0 25 7 36 35 53 31 19 55 47 55 64 0 3 -9 6 -20 6 -11 0 -20 -7 -20 -15
0 -8 -5 -15 -12 -15 -6 0 -9 -2 -6 -5 3 -3 -8 -20 -25 -38 -29 -31 -32 -32
-113 -32 -46 0 -84 -1 -84 -3 0 -15 24 -42 37 -42 13 0 13 3 3 15 -11 13 -5
15 48 15 52 0 62 -3 67 -20 8 -27 -1 -40 -30 -40 -22 0 -23 -4 -24 -60 0 -46
6 -72 26 -110 14 -27 31 -54 38 -60 15 -12 55 0 74 24 11 14 11 16 -3 16 -9 0
-15 -6 -14 -12 5 -22 -39 -21 -44 0 -4 15 -1 18 12 15 10 -3 21 0 25 7 5 7 -2
10 -22 7 -51 -8 -87 47 -38 59 13 3 29 12 36 20 6 8 15 12 19 9 5 -3 12 -1 15
5 4 6 1 9 -7 8 -7 -2 -12 3 -10 10 1 8 -12 2 -31 -12 -39 -30 -60 -35 -26 -6
l24 19 -25 -4 -25 -4 25 18 c13 11 36 21 51 23 23 4 30 -1 43 -29 20 -43 21
-41 -11 -46 -22 -3 -21 -4 4 -3 24 2 35 -3 39 -17 4 -14 9 -16 17 -8 15 15 27
14 27 -4 0 -8 -9 -20 -20 -27 -11 -7 -20 -18 -20 -24 0 -21 -52 -63 -82 -66
-24 -2 -41 -16 -76 -61 -25 -31 -43 -59 -40 -62 7 -8 87 58 87 71 1 6 8 17 17
25 12 10 20 10 35 1 10 -7 22 -12 26 -12 5 0 1 4 -7 10 -12 7 -12 12 4 29 14
15 26 19 50 14 45 -8 135 -69 149 -101 6 -15 17 -30 24 -35 7 -4 17 -24 22
-43 13 -47 -2 -71 -51 -85 -48 -13 -49 -21 -2 -17 l37 3 1 -56 1 -57 -31 3
c-18 1 -47 12 -67 24 -36 22 -130 30 -141 12 -3 -5 -15 -7 -26 -4 -24 6 -32
-12 -54 -128 -16 -84 -16 -86 6 -135 12 -27 24 -65 27 -84 7 -38 31 -51 57
-29 16 13 13 64 -8 146 -9 38 -8 47 21 99 17 32 31 66 31 76 0 10 5 18 12 18
6 0 9 2 6 5 -9 9 -38 -7 -38 -21 0 -7 -9 -28 -21 -46 -18 -29 -20 -30 -14 -8
5 24 5 23 -10 -3 -9 -16 -14 -35 -11 -43 3 -8 2 -12 -4 -9 -5 3 -12 -10 -16
-30 -6 -33 -14 -42 -26 -29 -5 4 0 35 27 152 6 24 33 30 53 10 7 -7 12 -8 12
-2 0 5 -10 16 -22 23 l-23 15 25 7 c38 11 118 11 101 0 -12 -8 -9 -12 13 -22
21 -10 26 -18 22 -33 -3 -12 -6 -56 -6 -98 0 -43 -4 -78 -9 -78 -24 0 -41 34
-41 80 0 45 -13 71 -27 56 -3 -3 2 -65 11 -138 9 -73 16 -147 16 -165 0 -20 8
-40 23 -54 18 -18 18 -21 4 -16 -10 4 -16 3 -12 -3 7 -11 -32 -33 -45 -25 -6
4 -7 -1 -3 -11 4 -10 2 -15 -4 -11 -5 3 -23 2 -39 -3 l-29 -8 31 -1 c17 -1 52
8 78 19 35 16 46 26 45 43 0 12 6 54 14 92 9 40 15 119 14 182 0 91 3 114 16
128 10 9 17 20 17 24 0 5 16 8 36 7 32 -1 38 3 46 27 14 41 2 92 -25 105 -16
8 -18 11 -6 11 21 1 31 38 23 83 l-6 33 22 -30 c68 -96 100 -197 100 -318 0
-116 -27 -196 -115 -341 -24 -41 -139 -146 -188 -172 -26 -14 -31 -14 -48 2
-20 18 -69 28 -69 13 0 -5 11 -9 23 -9 30 0 62 -34 53 -56 -5 -13 -14 -15 -41
-11 -22 4 -40 1 -48 -8 -39 -38 -253 -118 -379 -140 -25 -5 -35 -11 -31 -19 4
-6 -5 -3 -20 7 -29 19 -41 22 -32 8 10 -17 -104 -25 -335 -25 -204 -1 -249 2
-330 19 -63 13 -80 16 -152 27 l-78 12 82 41 c97 48 114 67 79 96 -21 18 -26
18 -41 4 -22 -20 -29 -19 -55 5 -21 19 -21 19 -22 -3 -1 -12 1 -17 5 -12 4 6
16 2 30 -11 l23 -22 -33 1 c-18 1 -36 9 -40 17 -5 13 -7 12 -7 -2 -1 -12 -9
-16 -28 -15 -24 2 -29 -3 -33 -28 -5 -28 -7 -30 -27 -20 -13 7 -20 14 -17 17
3 3 -13 14 -35 24 -22 10 -42 25 -44 33 -4 14 -5 14 -6 -1 -1 -12 -19 -21 -63
-32 l-63 -16 55 6 c30 3 60 10 67 16 10 8 27 -3 69 -45 60 -62 86 -73 254
-107 211 -42 510 -51 710 -20 154 24 192 33 178 42 -9 7 -5 8 14 4 49 -11 294
82 325 123 8 10 12 12 13 4 0 -8 13 -13 30 -13 22 0 30 5 30 18 0 10 26 34 61
57 98 64 193 174 244 279 53 110 70 189 62 299 -8 133 -67 257 -152 322 -38
29 -40 32 -31 67 14 55 -7 96 -61 120 -49 22 -58 35 -67 100 -5 30 -16 55 -32
71 -16 16 -21 28 -14 32 6 4 28 41 49 83 22 42 47 86 56 97 22 27 17 14 -33
-82 -23 -46 -42 -87 -42 -93 0 -6 22 33 50 85 27 53 47 101 44 109 -3 7 3 19
12 27 16 12 17 12 9 -1 -8 -13 -7 -13 8 -1 14 11 20 11 32 1 8 -7 15 -17 15
-21 0 -5 -24 -46 -54 -91 l-54 -81 15 -33 16 -33 41 22 c33 17 126 32 126 20
0 -1 -26 -16 -57 -32 -32 -17 -55 -30 -50 -31 4 0 -11 -16 -33 -36 -71 -64
-44 -66 50 -4 98 65 129 105 109 141 -13 26 -44 20 -112 -21 -81 -50 -93 -36
-36 44 71 99 87 162 47 190 -25 18 -25 18 -53 6z m-61 -500 c44 -49 47 -71 5
-36 -17 14 -39 26 -49 26 -25 0 -36 18 -16 26 9 3 13 10 10 15 -15 25 18 4 50
-31z m-157 -664 c7 -57 -6 -59 -29 -4 -14 31 -15 44 -6 55 17 20 29 2 35 -51z
m131 25 c9 -1 12 -15 10 -51 -3 -58 -21 -72 -26 -21 -2 19 -10 44 -18 57 -14
21 -14 22 3 19 10 -2 24 -4 31 -4z m-1368 -464 c0 -23 -119 -77 -172 -77 -39
0 -15 19 39 31 31 7 68 23 82 36 29 25 51 30 51 10z"/>
<path d="M2491 1968 c-6 -10 -8 -25 -4 -32 6 -10 14 -6 30 14 21 26 21 28 4
33 -11 2 -23 -3 -30 -15z"/>
<path d="M618 1963 c-15 -4 -35 -33 -22 -33 9 0 64 30 64 35 0 6 -17 5 -42 -2z"/>
<path d="M231 1899 c22 -33 43 -58 45 -56 3 3 -7 30 -23 61 -18 38 -33 56 -45
56 -16 0 -12 -10 23 -61z"/>
<path d="M566 1945 c-11 -8 -28 -15 -38 -15 -10 0 -18 -7 -18 -15 0 -8 5 -15
10 -15 6 0 10 5 10 10 0 6 9 10 20 10 10 0 24 9 30 20 13 24 11 24 -14 5z"/>
<path d="M1800 1940 c0 -5 14 -10 30 -10 17 0 30 5 30 10 0 6 -13 10 -30 10
-16 0 -30 -4 -30 -10z"/>
<path d="M2885 1889 c-41 -30 -84 -77 -85 -92 0 -4 28 15 63 44 81 67 80 66
70 72 -5 3 -26 -8 -48 -24z"/>
<path d="M1388 1896 c-16 -12 -17 -17 -4 -52 8 -21 16 -32 17 -24 2 8 6 -28 9
-80 l6 -95 2 104 c2 88 0 102 -13 97 -8 -3 -15 -4 -15 -3 0 1 4 17 9 35 5 17
9 32 8 32 -1 0 -10 -7 -19 -14z"/>
<path d="M793 1887 c-24 -6 -43 -16 -43 -23 0 -9 13 -8 50 4 28 9 50 19 50 24
0 9 1 9 -57 -5z"/>
<path d="M1548 1883 c-7 -33 4 -61 28 -72 14 -6 26 -11 27 -11 8 0 4 77 -5 88
-15 18 -46 15 -50 -5z"/>
<path d="M850 1865 c-14 -7 -42 -17 -62 -20 -21 -4 -38 -11 -38 -16 0 -12 1
-12 76 8 37 10 64 23 64 30 0 16 -9 16 -40 -2z"/>
<path d="M1640 1867 c0 -12 33 -22 155 -43 25 -4 27 -3 12 6 -17 11 -26 13
-97 26 -19 4 -43 11 -52 16 -13 6 -18 5 -18 -5z"/>
<path d="M657 1842 c-22 -24 -21 -35 3 -57 20 -18 21 -18 35 1 16 21 18 35 9
58 -8 21 -27 20 -47 -2z"/>
<path d="M2057 1833 c-11 -58 -19 -128 -13 -122 7 6 27 142 21 147 -1 2 -5 -9
-8 -25z"/>
<path d="M1693 1817 c2 -6 19 -15 39 -19 19 -4 48 -10 64 -13 73 -17 87 -18
80 -6 -4 6 -17 11 -29 11 -12 0 -53 8 -90 19 -42 11 -66 14 -64 8z"/>
<path d="M1830 1821 c0 -5 12 -12 28 -15 15 -4 35 -9 45 -12 10 -3 17 0 17 9
0 7 -6 14 -12 15 -7 0 -28 3 -45 6 -18 3 -33 1 -33 -3z"/>
<path d="M92 1798 c-35 -35 8 -114 85 -156 32 -17 72 -41 90 -52 21 -14 34
-17 38 -10 8 13 -14 42 -26 34 -5 -3 -9 0 -9 6 0 17 -26 40 -45 40 -26 0 -94
52 -101 77 -9 32 3 43 45 43 26 0 44 -7 59 -23 12 -13 22 -26 22 -30 0 -3 20
-28 45 -55 78 -85 126 -158 121 -186 -3 -15 2 -30 11 -37 13 -11 14 -7 8 37
-9 60 -76 208 -82 181 -4 -14 -12 -7 -35 30 -16 26 -44 63 -61 81 -28 29 -36
32 -92 32 -34 0 -66 -5 -73 -12z"/>
<path d="M2133 1774 c-1 -21 2 -33 7 -28 14 15 16 64 3 64 -5 0 -9 -16 -10
-36z"/>
<path d="M895 1763 c-11 -3 -25 -9 -31 -14 -6 -5 -28 -12 -49 -17 -21 -4 -40
-13 -42 -19 -5 -14 17 -11 62 8 35 14 32 13 68 23 15 5 27 12 27 17 0 9 -3 10
-35 2z"/>
<path d="M2212 1718 c3 -50 19 -63 37 -30 7 13 3 25 -15 47 l-24 30 2 -47z"/>
<path d="M1856 1726 c3 -9 10 -16 16 -16 5 0 7 -4 4 -9 -3 -4 17 -20 44 -35
27 -15 51 -22 54 -17 4 5 2 12 -3 16 -6 3 -7 13 -4 22 5 13 2 15 -15 11 -12
-4 -20 -3 -17 2 7 12 -16 27 -52 35 -28 5 -32 4 -27 -9z"/>
<path d="M1007 1715 c-17 -12 -18 -18 -7 -49 6 -20 16 -38 21 -41 5 -4 9 -18
9 -33 l0 -27 -26 26 c-14 14 -32 48 -40 75 l-14 49 5 -45 c3 -25 7 -54 10 -65
5 -18 -6 -24 -90 -54 -52 -18 -95 -37 -95 -43 0 -11 24 -5 113 33 37 15 67 25
67 22 0 -4 5 -2 11 4 15 15 56 -3 62 -28 4 -15 14 -19 49 -19 l44 0 -10 -80
c-6 -56 -6 -88 2 -103 19 -39 30 -90 43 -195 14 -112 26 -130 75 -118 23 6 23
9 19 80 -2 40 -9 93 -14 117 -9 37 -8 46 6 57 25 18 42 15 47 -10 13 -57 15
-59 11 -8 -3 45 -2 50 6 25 10 -34 4 -225 -8 -226 -4 0 -11 17 -16 38 -4 21
-12 42 -17 47 -12 12 -12 11 4 -79 10 -61 15 -70 35 -73 13 -2 28 1 33 6 11
11 -10 312 -22 333 -5 8 -21 3 -52 -15 -65 -38 -98 -32 -127 22 -10 18 -9 28
2 52 13 26 13 29 -1 35 -14 5 -14 8 -3 15 10 6 12 21 7 56 -7 54 -4 49 -35 59
-16 5 -21 4 -17 -4 4 -7 -1 -11 -13 -11 -16 0 -21 6 -21 28 0 25 3 27 41 27
35 0 40 -2 35 -20 -5 -19 -5 -19 9 -1 8 10 12 23 9 27 -3 5 2 6 10 3 8 -3 12
-12 10 -19 -3 -7 -1 -16 5 -20 7 -4 11 3 11 17 0 16 6 24 19 25 20 2 20 1 0
-30 -14 -24 -18 -48 -17 -97 l2 -65 5 65 c7 73 37 142 52 119 6 -11 9 -8 9 9
0 12 5 22 10 22 6 0 10 11 10 24 0 26 37 43 54 26 15 -15 26 -12 26 8 0 10 5
23 12 30 16 16 -5 15 -54 -2 -20 -7 -40 -10 -45 -5 -4 4 -8 -8 -9 -27 0 -19
-6 -40 -12 -46 -18 -18 -78 -14 -102 7 -20 18 -29 8 -9 -12 19 -19 -6 -23 -64
-11 -34 7 -57 18 -60 27 -3 9 -8 23 -12 33 -4 11 0 18 14 23 12 3 21 11 21 16
0 13 -12 11 -33 -6z m214 -495 c3 -25 9 -74 13 -110 7 -64 7 -64 -13 -46 -18
17 -25 38 -51 169 -8 37 -7 38 18 35 24 -3 28 -9 33 -48z"/>
<path d="M2768 1701 c-57 -36 -76 -63 -21 -30 61 37 89 58 77 58 -5 1 -31 -12
-56 -28z"/>
<path d="M2100 1709 c-19 -3 -27 -7 -17 -8 23 -1 77 -32 77 -43 0 -4 -11 -8
-24 -8 -13 0 -34 -9 -47 -20 -29 -23 -5 -28 25 -5 11 8 29 12 43 9 31 -8 31
21 0 56 -19 22 -27 25 -57 19z"/>
<path d="M2334 1684 c6 -30 3 -40 -23 -70 -17 -19 -31 -39 -31 -44 0 -17 -71
-40 -121 -40 -49 0 -66 11 -61 42 2 9 -2 19 -8 23 -6 4 -10 -7 -10 -30 0 -19
-7 -52 -15 -72 -8 -20 -13 -38 -10 -41 2 -3 9 6 14 19 6 14 10 18 11 9 1 -8 8
-1 16 15 15 30 15 30 10 -20 -3 -33 -2 -43 4 -30 5 11 9 30 9 43 1 20 6 22 52
22 28 0 59 5 69 10 15 8 21 6 30 -9 14 -26 13 -61 -2 -61 -6 0 -3 -6 8 -14 10
-8 19 -20 19 -27 0 -7 5 -14 10 -16 6 -1 11 16 11 40 1 23 18 84 38 136 20 51
36 94 36 96 0 2 -8 1 -19 -2 -12 -3 -20 2 -24 16 -4 15 0 21 11 21 15 0 15 2
2 10 -26 17 -32 11 -26 -26z m-25 -145 c-5 -22 -7 -44 -4 -50 4 -5 2 -9 -3 -9
-5 0 -15 13 -22 29 -10 25 -9 32 6 50 27 31 33 26 23 -20z"/>
<path d="M672 1678 c-18 -18 -15 -43 8 -63 11 -10 22 -16 23 -14 13 15 28 70
22 78 -8 15 -38 14 -53 -1z"/>
<path d="M848 1662 c-65 -26 -92 -42 -71 -42 16 0 147 50 158 61 16 16 -16 8
-87 -19z"/>
<path d="M2033 1682 c-8 -5 -1 -8 20 -9 17 0 37 -2 44 -4 6 -2 13 1 15 6 4 12
-62 18 -79 7z"/>
<path d="M1184 1665 c22 -17 42 -19 50 -6 4 5 -4 7 -16 4 -19 -4 -20 -3 -8 6
12 9 9 11 -15 11 -29 -1 -29 -1 -11 -15z"/>
<path d="M1337 1653 c-2 -5 1 -24 9 -43 l12 -35 1 43 c1 37 -10 55 -22 35z"/>
<path d="M473 1633 c-22 -8 -15 -43 7 -43 13 0 20 7 20 19 0 22 -9 30 -27 24z"/>
<path d="M2185 1610 c11 -5 34 -8 50 -8 29 0 29 0 5 8 -14 4 -36 8 -50 8 -23
1 -23 0 -5 -8z"/>
<path d="M226 1569 c29 -31 166 -129 181 -129 13 0 -61 72 -121 116 -70 53
-105 60 -60 13z"/>
<path d="M1620 1591 c0 -5 14 -13 31 -16 21 -5 27 -10 19 -15 -7 -5 -1 -9 19
-12 l30 -4 -24 24 c-13 13 -29 21 -35 17 -5 -3 -10 -1 -10 4 0 6 -7 11 -15 11
-8 0 -15 -4 -15 -9z"/>
<path d="M2766 1571 c-43 -15 -46 -18 -32 -30 14 -12 24 -11 66 9 83 39 59 54
-34 21z"/>
<path d="M1253 1550 c8 -14 18 -44 22 -68 4 -23 11 -42 15 -42 5 0 4 13 -1 29
-12 33 4 76 24 68 7 -2 18 2 25 9 10 11 8 13 -13 12 -14 -1 -25 -5 -25 -9 0
-12 -36 -5 -49 10 -9 11 -8 8 2 -9z"/>
<path d="M890 1521 c-93 -37 -114 -47 -105 -53 6 -3 35 4 65 18 30 13 62 23
71 24 9 0 19 7 23 15 7 18 3 18 -54 -4z"/>
<path d="M1365 1514 c-19 -10 -31 -11 -33 -5 -2 6 -8 11 -14 11 -7 0 -9 -16
-5 -44 4 -30 3 -46 -5 -48 -6 -2 -8 -9 -4 -16 14 -23 36 0 36 38 0 36 2 38 45
50 24 7 42 16 39 21 -8 13 -25 11 -59 -7z"/>
<path d="M688 1484 c-11 -23 -10 -29 12 -46 l24 -19 13 26 c8 14 11 35 8 45
-9 29 -43 25 -57 -6z"/>
<path d="M203 1478 c-13 -6 -23 -14 -23 -18 0 -4 27 -26 60 -50 46 -33 60 -49
60 -69 0 -20 3 -22 12 -13 10 10 4 28 -27 87 -22 41 -44 75 -50 74 -5 0 -20
-5 -32 -11z"/>
<path d="M2855 1460 c-3 -6 -3 -20 0 -31 6 -17 9 -19 16 -8 12 19 11 49 0 49
-6 0 -13 -5 -16 -10z"/>
<path d="M290 1445 c0 -13 75 -55 98 -55 18 0 14 28 -5 39 -10 5 -35 13 -55
19 -30 8 -38 8 -38 -3z"/>
<path d="M995 1450 c-3 -5 -15 -10 -26 -10 -10 0 -19 -6 -19 -14 0 -12 6 -12
40 1 22 9 40 20 40 25 0 11 -27 10 -35 -2z"/>
<path d="M443 1409 c-24 -12 -43 -27 -43 -34 0 -7 -7 -18 -15 -25 -8 -7 -15
-25 -15 -40 0 -15 7 -33 15 -40 8 -7 15 -17 15 -23 0 -6 -7 -2 -15 9 -17 23
-19 14 -3 -21 22 -48 78 -27 78 30 1 36 17 59 48 70 l24 7 -28 29 c-22 23 -24
29 -12 34 21 8 58 -24 58 -48 0 -11 -14 -35 -31 -54 -26 -30 -30 -41 -27 -81
2 -34 7 -47 18 -47 8 0 20 -4 26 -7 14 -9 24 0 18 17 -3 7 -1 16 5 20 19 11
12 42 -10 48 -16 4 -18 3 -8 -9 8 -10 9 -14 0 -14 -18 0 -23 24 -11 54 9 24
13 26 26 15 14 -12 14 -14 -2 -19 -12 -5 -14 -9 -6 -14 7 -4 12 -4 12 1 0 4 4
2 9 -5 11 -18 41 11 41 39 0 17 -3 18 -20 7 -17 -11 -22 -10 -30 2 -5 9 -5 19
0 26 6 6 7 14 3 17 -12 13 8 7 32 -9 14 -9 25 -25 25 -36 0 -10 4 -17 9 -14 5
3 14 -1 21 -9 7 -8 16 -13 20 -10 4 3 10 -2 14 -10 3 -9 0 -15 -9 -15 -8 0
-15 -5 -15 -11 0 -6 9 -8 20 -4 20 6 28 -9 10 -20 -12 -8 -13 -25 -1 -25 5 0
12 11 15 25 4 14 12 25 20 25 15 0 36 41 36 71 0 21 -26 37 -38 24 -4 -4 -1
-10 6 -12 16 -6 16 -46 0 -41 -7 3 -16 19 -20 36 -6 22 -15 32 -28 32 -10 0
-22 5 -25 10 -3 6 -19 10 -36 10 -22 0 -29 5 -29 19 0 25 -5 28 -60 35 -34 4
-55 1 -87 -15z m38 -29 c15 0 10 -30 -5 -36 -8 -3 -17 -16 -20 -30 -10 -38
-36 -30 -36 10 0 27 5 36 21 41 17 6 19 9 8 17 -11 8 -10 8 4 4 10 -3 23 -6
28 -6z"/>
<path d="M908 1414 c-30 -16 -35 -24 -15 -24 16 0 54 27 47 33 -3 3 -17 -1
-32 -9z"/>
<path d="M1388 1418 c-56 -15 -48 -32 10 -23 52 8 62 12 62 26 0 11 -23 10
-72 -3z"/>
<path d="M2060 1410 c0 -5 3 -10 8 -10 4 0 20 -10 35 -23 l28 -22 -16 -73 c-8
-40 -15 -88 -14 -105 1 -41 3 -33 25 91 18 105 24 114 64 92 13 -7 21 -6 26 2
6 9 10 5 16 -12 l7 -25 -2 25 c-2 21 -8 26 -47 31 -25 4 -62 14 -84 23 -45 19
-46 19 -46 6z"/>
<path d="M1320 1383 c0 -15 19 -38 32 -38 7 -1 12 -6 11 -13 -2 -7 2 -12 7
-12 12 0 13 10 1 29 -5 7 -14 10 -20 7 -6 -4 -11 -1 -11 8 0 8 -4 18 -10 21
-5 3 -10 3 -10 -2z"/>
<path d="M2310 1383 c-38 -12 -60 -28 -60 -42 0 -13 11 -16 56 -14 30 0 58 4
61 7 7 7 -24 56 -35 55 -4 0 -14 -3 -22 -6z"/>
<path d="M62 1355 c-45 -57 -20 -202 49 -287 l31 -39 -25 -37 c-39 -57 -50
-106 -44 -191 7 -115 35 -176 130 -277 99 -105 144 -129 302 -160 l120 -24
-106 6 c-167 8 -277 48 -305 110 l-12 29 -1 -27 c-1 -37 45 -73 127 -99 51
-16 101 -22 212 -25 102 -3 151 -9 166 -19 26 -17 181 -61 245 -70 44 -6 99 6
99 22 0 5 -42 9 -93 10 -72 1 -111 8 -182 31 -62 21 -81 30 -61 31 24 1 30 14
8 17 -225 24 -315 45 -364 85 -24 19 -39 26 -35 17 5 -15 3 -15 -24 0 -24 14
-26 17 -10 20 17 3 18 7 8 33 -8 20 -16 27 -27 23 -33 -14 -50 -16 -50 -6 0 6
-10 20 -22 32 l-22 20 52 0 c49 0 52 1 52 26 0 14 5 34 10 45 9 17 7 19 -17
19 -23 -1 -25 -2 -11 -10 12 -8 14 -17 9 -38 -11 -40 -66 -43 -106 -6 -28 26
-28 28 -10 35 18 7 17 8 -6 8 -24 1 -27 7 -39 61 -13 63 -9 195 7 211 6 6 22
-8 43 -36 37 -49 53 -61 25 -18 -52 79 -58 94 -47 118 l11 24 108 -56 c63 -33
102 -49 93 -38 -8 10 -54 37 -103 60 -68 32 -92 48 -107 75 -73 126 -96 218
-66 265 32 49 89 25 196 -84 53 -54 69 -79 89 -136 14 -38 26 -64 28 -58 2 6
-3 30 -11 54 -14 42 -14 43 2 19 32 -46 60 -75 68 -68 16 16 -179 240 -255
292 -21 15 -54 29 -73 32 -30 5 -38 2 -56 -21z"/>
<path d="M850 1352 c-30 -14 -49 -27 -43 -29 17 -6 103 33 103 46 0 6 -1 11
-2 10 -2 0 -28 -12 -58 -27z"/>
<path d="M1750 1354 c0 -13 5 -24 10 -24 6 0 10 7 10 15 0 8 5 15 12 15 15 0
1 13 -17 16 -10 1 -15 -6 -15 -22z"/>
<path d="M2470 1355 c0 -8 -11 -22 -26 -31 -16 -11 -22 -20 -15 -27 6 -6 15
-4 26 7 9 9 21 16 26 16 5 0 9 11 9 25 0 14 -4 25 -10 25 -5 0 -10 -7 -10 -15z"/>
<path d="M1706 1310 c-9 -30 -19 -60 -21 -66 -2 -6 3 -11 11 -11 8 0 13 5 12
11 -5 14 49 66 58 57 4 -3 4 0 0 7 -6 11 -12 9 -27 -7 -25 -27 -33 -27 -19 0
6 11 10 30 8 42 -3 16 -9 6 -22 -33z"/>
<path d="M1812 1345 c21 -26 41 -119 36 -170 -3 -37 -6 -41 -40 -49 -37 -9
-52 -26 -25 -26 8 0 20 -18 27 -41 12 -35 12 -42 -1 -50 -8 -5 -9 -9 -3 -9 5
0 18 6 27 13 16 11 16 14 -3 49 -24 45 -24 48 -5 48 8 0 22 11 31 25 15 23 15
31 -1 107 -11 57 -23 89 -38 103 -21 20 -21 20 -5 0z"/>
<path d="M935 1271 c-198 -83 -200 -84 -202 -111 -5 -58 -61 -100 -112 -82
-35 12 -40 3 -13 -21 19 -18 42 -23 42 -9 0 4 15 12 33 18 29 11 339 149 394
176 13 6 21 13 20 15 -3 3 -57 -20 -236 -98 -105 -46 -121 -51 -121 -41 1 23
10 28 210 112 80 34 149 66 155 71 17 17 -14 10 -78 -18 -168 -71 -221 -92
-224 -89 -2 2 63 32 144 66 153 65 159 67 152 74 -2 2 -76 -26 -164 -63z"/>
<path d="M2518 1326 c-14 -10 -18 -28 -18 -86 0 -59 2 -70 13 -61 8 6 16 8 20
5 3 -3 11 4 17 17 11 20 10 21 -12 17 -16 -3 -25 0 -25 8 0 8 9 11 26 8 14 -3
39 -1 54 5 26 10 28 14 22 44 -11 53 -57 73 -97 43z m82 -16 c0 -5 -16 -10
-35 -10 -19 0 -35 5 -35 10 0 6 16 10 35 10 19 0 35 -4 35 -10z m-30 -31 c-23
-8 -22 -8 8 -5 20 1 31 -2 29 -8 -2 -6 -20 -12 -40 -14 -32 -3 -37 0 -37 17 0
17 6 21 33 20 31 -1 31 -1 7 -10z"/>
<path d="M2690 1300 c0 -16 5 -30 11 -30 6 0 8 7 5 16 -4 9 -1 23 5 30 9 11 8
14 -5 14 -11 0 -16 -9 -16 -30z"/>
<path d="M1493 1288 c4 -18 9 -43 13 -55 8 -30 -17 -31 -58 -2 -42 31 -45 17
-3 -20 29 -25 40 -29 55 -21 17 9 22 6 34 -23 15 -37 44 -47 132 -47 22 0 49
-7 60 -15 27 -21 34 -18 21 8 -9 19 -20 24 -52 26 -22 1 -62 5 -89 9 l-48 7
-25 68 c-14 37 -23 70 -20 73 3 4 32 3 64 -1 58 -6 59 -7 75 -51 14 -40 14
-44 -1 -45 -9 0 -11 -3 -4 -5 7 -3 10 -11 7 -19 -3 -7 -1 -16 5 -20 7 -3 11 2
11 14 0 12 4 21 9 21 5 0 1 26 -10 59 -22 65 -33 71 -132 71 l-50 0 6 -32z"/>
<path d="M2221 1288 c-17 -38 -7 -78 19 -78 12 0 20 7 20 16 0 11 -6 14 -20 9
-14 -4 -20 -2 -20 9 0 41 95 44 145 4 23 -18 26 -25 20 -59 -6 -35 -5 -39 14
-39 23 0 41 27 41 62 0 31 -28 70 -43 62 -7 -4 -9 -4 -5 1 4 4 3 14 -3 22 -13
14 -49 18 -49 4 0 -4 -24 -3 -53 4 l-53 12 -13 -29z"/>
<path d="M1771 1233 c-1 -41 2 -53 14 -53 12 0 14 7 9 28 -19 74 -22 78 -23
25z"/>
<path d="M247 1143 c71 -133 93 -169 93 -158 0 6 -14 36 -31 68 -35 67 -33 90
2 28 12 -23 27 -41 31 -41 5 0 -10 27 -32 60 -23 33 -45 58 -49 56 -4 -3 -18
13 -30 34 -44 78 -30 39 16 -47z"/>
<path d="M2306 1221 c-7 -10 43 -25 52 -16 7 7 -18 25 -35 25 -6 0 -14 -4 -17
-9z"/>
<path d="M455 1160 c6 -59 21 -107 30 -98 8 7 -17 143 -27 153 -7 7 -8 -10 -3
-55z"/>
<path d="M2189 1203 c-1 -5 -1 -11 0 -15 0 -5 -4 -8 -9 -8 -6 0 -8 -11 -4 -27
7 -25 6 -27 -9 -14 -10 7 -17 9 -17 3 0 -5 7 -15 15 -22 8 -7 15 -23 15 -35 0
-13 7 -26 16 -29 25 -10 29 1 9 24 -15 16 -17 30 -11 75 3 30 4 55 1 55 -3 0
-6 -3 -6 -7z"/>
<path d="M2600 1193 c-70 -8 -54 -23 23 -21 48 0 77 5 77 12 0 12 -42 15 -100
9z"/>
<path d="M2717 1149 c7 -25 33 -33 33 -9 0 10 8 21 18 23 9 2 1 4 -19 4 -30 0
-35 -3 -32 -18z"/>
<path d="M491 1125 c1 -22 3 -32 6 -23 4 15 8 16 25 7 21 -11 21 -12 -3 -25
-24 -14 -24 -14 6 -8 17 4 33 9 37 11 13 7 -4 33 -23 33 -10 0 -25 10 -33 22
-16 22 -16 21 -15 -17z"/>
<path d="M1949 1134 c41 -13 77 -22 79 -19 5 4 -125 45 -142 44 -6 -1 23 -12
63 -25z"/>
<path d="M625 1120 c20 -20 29 -23 43 -14 35 22 25 40 -22 39 l-45 0 24 -25z"/>
<path d="M2074 1132 c-31 -3 -31 -4 -23 -40 14 -59 12 -62 -27 -62 -40 0 -40
-1 1 -100 13 -30 28 -68 33 -85 5 -16 17 -35 28 -40 10 -6 31 -18 46 -28 20
-14 31 -16 45 -8 15 9 13 10 -14 11 -17 0 -35 4 -38 10 -4 6 16 8 56 3 l61 -6
-6 44 c-3 24 -6 52 -7 62 0 21 -24 17 -24 -4 0 -8 5 -25 12 -39 12 -23 11 -25
-9 -28 -12 -2 -45 -1 -75 3 -52 6 -53 7 -64 48 -6 23 -21 61 -32 84 -12 23
-19 44 -17 47 3 2 36 2 74 -1 l69 -6 15 -38 c8 -22 19 -39 24 -39 12 0 10 14
-12 64 -16 37 -24 46 -45 46 -21 0 -25 5 -26 33 -2 59 -11 72 -45 69z"/>
<path d="M1070 1096 c-95 -35 -230 -100 -230 -111 0 -4 272 113 278 120 9 8
-11 5 -48 -9z"/>
<path d="M2297 1090 c-9 -11 -26 -20 -37 -20 -30 0 -24 18 8 23 26 4 25 4 -5
6 -29 1 -32 -1 -31 -29 1 -21 6 -30 17 -30 13 0 14 2 2 9 -11 7 -8 10 14 13
15 2 34 13 43 26 18 27 12 29 -11 2z"/>
<path d="M1513 1083 c-44 -22 -41 -37 7 -53 22 -7 40 -17 40 -22 0 -5 8 -4 19
1 20 11 115 4 145 -11 11 -6 15 -13 9 -19 -15 -15 -103 -39 -103 -29 0 5 -11
5 -25 -2 -18 -8 -22 -14 -14 -24 7 -8 7 -14 -1 -19 -8 -5 -6 -12 5 -25 8 -9
20 -44 26 -76 6 -32 15 -67 20 -76 6 -13 4 -20 -10 -28 -33 -17 -50 -12 -56
18 -9 42 -49 162 -53 158 -3 -4 7 -46 34 -143 l15 -53 45 0 c27 0 43 -4 39
-10 -8 -13 -91 -1 -134 19 l-34 16 2 118 c1 65 5 125 8 133 3 8 17 22 32 30
14 8 18 13 8 10 -11 -4 -29 -9 -40 -12 -21 -5 -22 -11 -23 -117 0 -136 -6
-164 -37 -169 -17 -3 -14 -6 16 -12 20 -5 37 -12 37 -17 0 -12 -44 -11 -56 1
-7 7 -17 4 -29 -11 -11 -11 -15 -20 -10 -19 21 5 29 -1 16 -9 -9 -6 -23 -5
-36 1 -29 13 -65 -5 -65 -34 0 -19 -4 -20 -42 -14 -22 4 -54 14 -71 24 -27 16
-29 20 -24 68 4 42 2 52 -14 62 -10 7 -19 17 -19 22 0 6 11 3 24 -5 22 -14 24
-14 28 3 4 13 25 22 84 35 95 20 121 21 127 5 3 -7 6 -2 6 11 1 22 -2 23 -41
18 -88 -13 -219 -44 -230 -55 -14 -14 5 -123 27 -158 16 -25 76 -44 141 -45
l49 0 -38 -14 c-37 -14 -78 -7 -186 32 -13 5 -13 3 3 -15 11 -12 24 -22 31
-22 6 0 30 -9 53 -20 60 -29 249 -46 350 -31 87 13 162 43 162 65 0 18 27 21
64 6 55 -20 17 -69 -72 -93 -112 -31 -264 -31 -382 -1 -22 6 -23 5 -10 -9 28
-28 91 -37 243 -34 l148 4 14 -26 c18 -35 83 -96 92 -88 4 4 -17 31 -45 60
-51 52 -61 67 -43 67 9 0 71 -63 123 -124 l25 -30 18 37 c9 20 23 37 30 37 17
0 65 61 94 118 19 38 21 50 13 95 l-10 52 -1 -43 c-1 -45 -59 -159 -99 -195
-17 -16 -20 -16 -32 -2 -12 14 -15 13 -32 -5 -19 -20 -19 -20 -48 7 -17 14
-28 29 -25 31 3 3 0 11 -5 17 -13 16 52 83 93 97 39 14 53 44 32 69 -17 18
-16 20 14 54 46 53 37 119 -20 151 -35 20 -4 17 70 -6 36 -11 67 -17 69 -15 6
6 -37 22 -113 43 -33 9 -63 21 -67 27 -4 5 -8 28 -8 50 0 48 -9 85 -20 85 -5
0 -4 -15 1 -32 5 -18 9 -50 9 -70 0 -31 8 -45 50 -88 56 -57 62 -85 28 -132
-26 -37 -109 -75 -165 -76 -28 -1 -50 -8 -68 -24 -15 -13 -27 -21 -28 -18 -1
2 -13 -3 -27 -13 -31 -21 -80 -23 -80 -2 0 11 11 15 38 15 26 0 45 7 57 20 10
11 22 17 27 14 6 -4 5 3 -1 14 -6 11 -13 38 -16 59 -3 21 -8 56 -11 78 -5 41
-26 127 -38 156 -6 13 1 18 35 23 48 8 84 25 118 57 l24 22 -23 9 c-13 5 -67
12 -119 15 -67 4 -105 12 -126 25 l-30 18 26 0 c15 0 32 7 39 15 17 20 -4 19
-47 -2z m107 -430 c2 -2 -2 -8 -10 -13 -10 -7 -11 -10 -2 -10 26 0 10 -32 -24
-46 -20 -8 -38 -24 -41 -35 -6 -22 -5 -22 -150 -23 l-112 -1 48 16 c26 9 67
20 91 24 60 10 110 33 110 50 0 22 -17 27 -23 6 -5 -21 -97 -48 -118 -35 -8 4
-9 3 -5 -4 9 -15 -4 -15 -41 -1 -27 10 -27 11 -9 25 11 8 28 12 38 8 30 -9
128 18 128 37 0 13 9 15 58 11 31 -2 59 -6 62 -9z m294 -68 c-1 -14 -49 -29
-69 -21 -14 5 -15 9 -4 22 13 16 74 16 73 -1z"/>
<path d="M2342 1069 c-13 -16 -29 -29 -37 -29 -7 0 -30 -10 -52 -22 -36 -21
-38 -25 -32 -58 l6 -35 2 32 c1 39 18 51 35 28 12 -17 13 -16 12 5 -1 18 5 23
32 25 17 1 32 -2 32 -7 0 -5 4 -7 9 -4 5 3 7 15 4 26 -4 14 3 30 17 45 16 17
19 25 9 24 -8 0 -24 -13 -37 -30z"/>
<path d="M1648 1083 c18 -2 45 -2 60 0 15 2 0 4 -33 4 -33 0 -45 -2 -27 -4z"/>
<path d="M508 1026 c-53 -19 -67 -145 -28 -239 13 -32 27 -57 31 -57 4 0 1 12
-7 28 -32 61 -5 223 41 244 18 8 33 7 66 -6 38 -15 43 -15 65 -1 23 15 35 33
14 20 -5 -3 -10 -1 -10 4 0 6 -5 11 -11 11 -6 0 -9 -7 -5 -15 7 -20 -17 -19
-79 3 -39 15 -56 16 -77 8z"/>
<path d="M1455 1018 c-16 -6 -36 -15 -42 -21 -15 -11 -17 -125 -3 -147 7 -10
10 7 10 58 0 46 4 71 10 67 6 -3 10 -1 10 5 0 5 15 19 33 30 35 22 29 24 -18
8z"/>
<path d="M2381 964 c-12 -15 -22 -36 -23 -48 -4 -61 -2 -86 7 -83 6 2 10 29
10 61 0 56 11 75 43 76 6 0 12 5 12 10 0 19 -29 10 -49 -16z"/>
<path d="M1208 973 c-28 -4 -36 -17 -18 -28 6 -3 10 -2 10 4 0 6 6 8 14 5 20
-8 10 -29 -20 -43 -30 -13 -37 -14 -30 -2 4 5 -3 7 -14 4 -29 -8 -14 -23 24
-23 43 0 75 30 69 64 -3 14 -6 25 -7 25 0 -1 -13 -4 -28 -6z"/>
<path d="M586 962 c-2 -4 -7 -37 -10 -72 -6 -73 -1 -63 12 23 9 55 8 65 -2 49z"/>
<path d="M856 951 c-69 -16 -69 -16 -84 -61 -13 -38 -16 -42 -24 -25 -6 15 -7
13 -5 -12 2 -18 -1 -35 -7 -37 -7 -3 -7 -5 1 -5 16 -1 53 47 53 69 0 24 17 35
78 48 73 16 73 16 56 -23 -9 -22 -10 -35 -4 -35 9 0 50 80 50 96 0 8 -44 2
-114 -15z"/>
<path d="M1330 940 c0 -7 -6 -10 -14 -7 -14 5 -26 -12 -26 -36 0 -8 4 -7 12 1
7 7 18 12 25 12 26 0 -17 -49 -54 -61 -21 -7 -31 -15 -26 -20 14 -14 57 5 82
37 22 28 28 69 11 79 -5 3 -10 1 -10 -5z"/>
<path d="M2294 920 c-7 -7 -9 -32 -6 -62 4 -44 3 -50 -11 -45 -11 4 -14 2 -10
-9 8 -21 18 -17 31 11 6 14 18 25 26 25 8 0 17 4 20 9 3 4 -5 6 -19 4 -21 -5
-24 -2 -23 27 1 35 24 51 40 29 8 -12 9 -11 5 1 -4 18 -38 25 -53 10z"/>
<path d="M2125 901 c-3 -6 -15 -8 -26 -6 -21 4 -21 4 -4 -15 23 -25 51 -26 65
-1 15 30 12 38 -6 13 -8 -12 -22 -22 -31 -22 -12 0 -11 5 7 20 13 11 18 20 12
20 -6 0 -13 -4 -17 -9z"/>
<path d="M828 859 l-23 -20 27 16 c25 15 28 15 34 2 3 -9 -3 -28 -12 -44 l-18
-28 21 18 c13 12 23 15 27 8 14 -23 -15 -49 -72 -65 -72 -20 -73 -20 -65 0 4
12 2 15 -8 12 -16 -5 -26 -58 -11 -58 5 0 22 4 38 10 16 5 48 14 72 20 35 9
45 17 57 47 18 44 18 43 -1 43 -10 0 -13 6 -10 18 4 11 -1 22 -13 29 -16 10
-24 9 -43 -8z"/>
<path d="M1113 864 c0 -11 96 -28 106 -19 2 3 -5 5 -17 5 -12 0 -22 4 -22 9 0
5 -15 11 -33 13 -21 2 -34 -1 -34 -8z"/>
<path d="M275 845 c28 -13 59 -24 70 -24 17 1 17 2 2 6 -9 2 -15 8 -12 13 2 4
-13 10 -34 14 -22 3 -48 8 -58 11 -10 3 5 -6 32 -20z"/>
<path d="M601 848 c-1 -18 -6 -28 -17 -28 -8 0 -13 -4 -9 -9 3 -5 -3 -12 -12
-14 -12 -3 -10 -5 7 -6 42 -1 53 11 42 50 -10 32 -10 33 -11 7z"/>
<path d="M1860 815 c0 -3 7 -35 16 -70 14 -54 14 -68 3 -83 -12 -16 -12 -16 5
0 17 15 18 22 6 82 -7 37 -16 69 -21 72 -5 3 -9 2 -9 -1z"/>
<path d="M404 786 c-18 -8 -35 -19 -39 -26 -6 -9 -10 -9 -17 1 -8 11 -9 10 -5
-3 7 -21 -28 -56 -36 -36 -3 7 -6 3 -6 -9 -1 -28 21 -22 43 11 8 13 28 29 45
36 26 10 35 10 56 -4 13 -9 27 -27 31 -41 3 -14 10 -22 15 -19 5 3 9 0 9 -7 0
-7 3 -9 7 -6 12 13 -29 87 -49 87 -20 0 -24 16 -5 23 8 4 7 6 -3 6 -8 0 -29
-6 -46 -13z"/>
<path d="M2301 764 c16 -19 83 -54 104 -54 8 0 15 6 15 14 0 9 -7 12 -20 9
-11 -3 -40 6 -66 21 -27 15 -41 19 -33 10z"/>
<path d="M1046 728 c26 -32 35 -37 51 -31 22 9 15 23 -12 23 -14 0 -28 7 -31
15 -4 8 -11 15 -17 15 -5 0 -2 -10 9 -22z"/>
<path d="M674 732 c4 -6 -14 -17 -45 -27 -40 -14 -56 -15 -75 -6 -44 19 -45
10 -8 -40 l25 -34 -6 30 c-4 20 -3 26 3 17 7 -11 18 -9 55 8 55 26 74 45 56
56 -7 4 -9 3 -5 -4z"/>
<path d="M910 710 c0 -4 25 -18 55 -30 34 -14 75 -42 106 -74 29 -28 46 -41
40 -28 -17 33 -80 101 -105 114 -27 15 -96 27 -96 18z"/>
<path d="M2176 704 c-18 -13 -16 -14 25 -13 24 1 35 4 24 6 -11 3 -22 9 -25
13 -3 5 -14 2 -24 -6z"/>
<path d="M2450 697 c0 -22 -28 -29 -33 -9 -3 9 -5 -1 -5 -23 0 -22 2 -33 5
-23 4 18 48 33 64 22 7 -4 7 1 0 14 -14 27 -31 37 -31 19z"/>
<path d="M2506 703 c-14 -15 -4 -23 22 -18 23 5 24 4 6 -4 -12 -5 -25 -14 -29
-20 -3 -6 -22 -11 -41 -11 -19 0 -34 -5 -34 -11 0 -7 14 -8 43 -4 64 11 89 23
85 41 -3 18 -42 37 -52 27z"/>
<path d="M424 678 c13 -13 35 -36 49 -52 18 -22 26 -26 32 -16 5 8 4 11 -3 6
-6 -4 -18 6 -27 23 -14 29 -51 61 -68 61 -4 0 3 -10 17 -22z"/>
<path d="M798 693 c23 -9 12 -23 -20 -24 -26 -1 -28 -3 -9 -6 36 -7 71 5 65
22 -4 8 -16 15 -28 14 -11 0 -15 -3 -8 -6z"/>
<path d="M900 682 c0 -4 10 -8 23 -9 29 -2 148 -128 175 -187 33 -70 70 -85
67 -27 -2 55 -13 66 -35 39 -16 -19 -19 -20 -20 -6 0 22 -114 153 -155 178
-34 21 -55 26 -55 12z"/>
<path d="M1990 651 c-16 -18 -30 -38 -30 -45 1 -12 30 23 30 36 0 17 40 7 65
-17 34 -35 31 -18 -5 24 l-29 34 -31 -32z"/>
<path d="M2082 669 c10 -5 15 -16 12 -24 -4 -8 -1 -15 4 -15 6 0 13 9 17 19 3
11 14 22 23 24 9 3 -3 5 -28 6 -34 0 -41 -2 -28 -10z"/>
<path d="M2258 666 c18 -8 38 -13 45 -10 7 2 33 -13 59 -35 51 -42 50 -48 -7
-69 l-30 -11 30 4 c17 2 53 4 82 4 46 1 52 3 46 19 -11 29 -53 46 -53 21 0 -6
7 -9 15 -5 8 3 15 1 15 -4 0 -20 -30 -9 -42 14 -7 14 -16 25 -21 25 -4 1 -24
12 -45 25 -20 14 -57 28 -82 31 l-45 6 33 -15z"/>
<path d="M616 627 c-6 -13 -4 -24 7 -34 13 -13 40 -15 154 -14 l139 2 27 -48
c38 -67 64 -96 79 -87 7 4 10 4 6 -1 -4 -4 -3 -14 3 -22 10 -11 14 -10 26 7 8
11 22 20 31 21 10 0 12 3 5 5 -7 3 -20 1 -31 -5 -15 -8 -24 -4 -49 22 -16 18
-40 49 -52 70 -13 21 -36 44 -51 52 -32 16 -115 21 -106 6 4 -5 -24 -11 -61
-13 -99 -5 -111 -1 -115 30 -4 23 -5 24 -12 9z"/>
<path d="M2493 622 c-27 -4 -30 -17 -7 -26 8 -3 22 1 30 8 17 17 8 24 -23 18z"/>
<path d="M2746 615 c16 -13 17 -16 4 -25 -12 -8 -11 -10 7 -10 30 0 40 20 18
37 -27 19 -55 18 -29 -2z"/>
<path d="M2192 600 c-7 -11 -26 -23 -42 -26 -16 -4 -31 -13 -34 -21 -3 -8 -2
-12 3 -9 9 6 21 -16 21 -39 0 -18 -31 -28 -44 -15 -8 8 -7 14 4 20 11 7 8 10
-13 10 l-29 0 31 -39 c17 -21 28 -40 25 -43 -2 -3 9 -5 26 -4 28 1 30 3 30 42
0 22 -5 45 -12 52 -9 9 -3 21 27 52 21 22 35 40 29 40 -5 0 -15 -9 -22 -20z"/>
<path d="M2631 560 c-24 -11 -63 -20 -86 -20 -24 0 -45 -4 -47 -10 -1 -5 -27
-14 -57 -20 -30 -5 -61 -16 -69 -23 -13 -10 -14 -8 -8 18 6 24 5 28 -5 17 -8
-7 -14 -40 -15 -80 -1 -64 -1 -64 5 -14 3 29 9 52 14 52 48 -1 67 1 63 8 -3 5
9 9 27 9 46 1 132 19 158 34 13 7 46 20 74 30 43 16 46 18 20 18 -16 0 -50 -8
-74 -19z"/>
<path d="M835 530 c-16 -4 -64 -9 -105 -10 -41 -2 -64 -5 -50 -7 41 -8 234 8
219 18 -16 10 -22 10 -64 -1z"/>
<path d="M2420 413 c-61 -27 -66 -31 -58 -38 3 -3 35 6 72 20 36 14 78 25 93
25 35 0 27 6 -17 12 -24 4 -52 -2 -90 -19z"/>
<path d="M648 423 c23 -2 61 -2 85 0 23 2 4 4 -43 4 -47 0 -66 -2 -42 -4z"/>
<path d="M2065 410 c-10 -11 -33 -22 -51 -26 -19 -3 -37 -10 -40 -15 -8 -13
90 -11 123 2 15 7 39 11 53 11 14 0 18 2 10 5 -8 3 -22 11 -30 18 -28 23 -48
24 -65 5z"/>
<path d="M2182 423 c-10 -4 -10 -8 -1 -19 10 -12 9 -18 -4 -31 -13 -13 -19
-14 -31 -3 -9 7 -16 8 -16 2 0 -24 -121 -49 -163 -33 -35 14 -35 -2 0 -24 26
-17 26 -19 8 -27 -15 -6 -12 -7 11 -4 19 3 41 -2 58 -13 25 -17 34 -17 80 -7
58 14 136 52 136 66 0 15 -11 12 -51 -16 -55 -38 -115 -49 -148 -27 l-26 17
35 9 c19 5 38 14 42 20 5 9 10 9 20 -1 19 -19 43 -14 58 13 7 13 17 22 22 19
5 -3 3 -13 -4 -22 -12 -13 -10 -14 9 -4 20 11 21 15 9 49 -13 38 -22 45 -44
36z"/>
</g>
</svg>
